<svg id="Grupo_134" data-name="Grupo 134" xmlns="http://www.w3.org/2000/svg" width="143.15" height="54.718" viewBox="0 0 143.15 54.718">
  <g id="Grupo_78" data-name="Grupo 78">
    <g id="Grupo_76" data-name="Grupo 76" transform="translate(56.917)">
      <rect id="Rectángulo_76" data-name="Rectángulo 76" width="0.445" height="54.718" fill="#1a1818"/>
    </g>
    <g id="Grupo_77" data-name="Grupo 77" transform="translate(65.024 8.518)">
      <path id="Trazado_358" data-name="Trazado 358" d="M380.81,15.315a1.6,1.6,0,0,0-1.063-.335,1.976,1.976,0,0,0-.955.209,1.726,1.726,0,0,0-.612.557,2.363,2.363,0,0,0-.329.8,4.347,4.347,0,0,0-.1.931,3.546,3.546,0,0,0,.1.863,2.339,2.339,0,0,0,.328.75,1.691,1.691,0,0,0,.581.525,1.742,1.742,0,0,0,.856.2,1.719,1.719,0,0,0,1.219-.409,1.846,1.846,0,0,0,.54-1.153h1.078a2.961,2.961,0,0,1-.888,1.837,2.767,2.767,0,0,1-1.937.646,3.333,3.333,0,0,1-1.292-.234,2.512,2.512,0,0,1-.943-.667,2.9,2.9,0,0,1-.571-1.035,4.258,4.258,0,0,1-.191-1.314,4.643,4.643,0,0,1,.185-1.341,3.118,3.118,0,0,1,.564-1.089,2.638,2.638,0,0,1,.946-.728,3.107,3.107,0,0,1,1.326-.264,3.769,3.769,0,0,1,1.021.131,2.411,2.411,0,0,1,.842.4,2.234,2.234,0,0,1,.6.686,2.54,2.54,0,0,1,.3.981h-1.091A1.622,1.622,0,0,0,380.81,15.315Z" transform="translate(-376.306 -11.757)" fill="#1a1818"/>
      <path id="Trazado_359" data-name="Trazado 359" d="M387.711,20.186a2.89,2.89,0,0,1-1.8.546,3.269,3.269,0,0,1-1.327-.246,2.581,2.581,0,0,1-.947-.692,2.91,2.91,0,0,1-.574-1.066,4.911,4.911,0,0,1-.214-1.344,3.909,3.909,0,0,1,.22-1.336A3.283,3.283,0,0,1,383.689,15a2.846,2.846,0,0,1,.952-.691,2.9,2.9,0,0,1,1.206-.246,2.645,2.645,0,0,1,1.417.349,2.837,2.837,0,0,1,.905.9,3.485,3.485,0,0,1,.467,1.183,4.937,4.937,0,0,1,.107,1.224h-4.787a2.544,2.544,0,0,0,.1.794,1.8,1.8,0,0,0,.359.667,1.777,1.777,0,0,0,.63.464,2.184,2.184,0,0,0,.9.17,1.807,1.807,0,0,0,1.093-.308,1.509,1.509,0,0,0,.562-.939h1.039A2.545,2.545,0,0,1,387.711,20.186Zm-.252-4.1a1.786,1.786,0,0,0-.381-.576,1.836,1.836,0,0,0-.568-.386,1.78,1.78,0,0,0-.724-.142,1.808,1.808,0,0,0-.736.142,1.7,1.7,0,0,0-.561.391,1.887,1.887,0,0,0-.372.577,2.15,2.15,0,0,0-.161.7h3.673A2.212,2.212,0,0,0,387.46,16.084Z" transform="translate(-375.864 -11.757)" fill="#1a1818"/>
      <path id="Trazado_360" data-name="Trazado 360" d="M390.359,14.207v1.014h.032a2.214,2.214,0,0,1,2.08-1.161,2.8,2.8,0,0,1,1.052.171,1.755,1.755,0,0,1,.681.482,1.8,1.8,0,0,1,.363.737,3.916,3.916,0,0,1,.106.945v4.2h-1.055V16.265a1.267,1.267,0,0,0-.348-.939,1.292,1.292,0,0,0-.952-.346,2.108,2.108,0,0,0-.834.15,1.521,1.521,0,0,0-.59.418,1.833,1.833,0,0,0-.355.636,2.675,2.675,0,0,0-.117.8V20.6h-1.055V14.207Z" transform="translate(-375.4 -11.757)" fill="#1a1818"/>
      <path id="Trazado_361" data-name="Trazado 361" d="M398.585,14.325v.923h-1.279v3.977a1.272,1.272,0,0,0,.03.3.3.3,0,0,0,.12.175.55.55,0,0,0,.24.078,3.338,3.338,0,0,0,.4.02h.486v.92h-.81a3.77,3.77,0,0,1-.7-.056,1.064,1.064,0,0,1-.472-.2.878.878,0,0,1-.268-.423,2.455,2.455,0,0,1-.088-.717l0-4.07h-1.087v-.923h1.087V12.393h1.055v1.932Z" transform="translate(-374.988 -11.876)" fill="#1a1818"/>
      <path id="Trazado_362" data-name="Trazado 362" d="M400.4,14.194v1.35h.022a2.875,2.875,0,0,1,.939-1.153,2.376,2.376,0,0,1,1.413-.346V15.16a3.023,3.023,0,0,0-1.078.172,1.758,1.758,0,0,0-.719.508,2.138,2.138,0,0,0-.4.812,4.344,4.344,0,0,0-.122,1.1V20.6H399.4V14.194Z" transform="translate(-374.686 -11.758)" fill="#1a1818"/>
      <path id="Trazado_363" data-name="Trazado 363" d="M402.948,16.091a2.94,2.94,0,0,1,.592-1.062,2.819,2.819,0,0,1,.979-.711,3.61,3.61,0,0,1,2.681,0,2.782,2.782,0,0,1,.969.711,2.878,2.878,0,0,1,.593,1.062,4.14,4.14,0,0,1,.2,1.316,4.066,4.066,0,0,1-.2,1.309,2.926,2.926,0,0,1-.593,1.058,2.7,2.7,0,0,1-.969.7,3.681,3.681,0,0,1-2.681,0,2.737,2.737,0,0,1-.979-.7,2.99,2.99,0,0,1-.592-1.058,4.125,4.125,0,0,1-.2-1.309A4.2,4.2,0,0,1,402.948,16.091Zm1.072,2.343a2.154,2.154,0,0,0,.426.754,1.84,1.84,0,0,0,.637.463,1.934,1.934,0,0,0,1.544,0,1.829,1.829,0,0,0,.639-.463,2.118,2.118,0,0,0,.424-.754,3.454,3.454,0,0,0,0-2.062,2.173,2.173,0,0,0-.424-.762,1.766,1.766,0,0,0-.639-.468,1.922,1.922,0,0,0-1.544,0,1.776,1.776,0,0,0-.637.468,2.209,2.209,0,0,0-.426.762,3.5,3.5,0,0,0,0,2.062Z" transform="translate(-374.448 -11.757)" fill="#1a1818"/>
      <path id="Trazado_364" data-name="Trazado 364" d="M416.767,15.315a1.6,1.6,0,0,0-1.064-.335,1.973,1.973,0,0,0-.955.209,1.776,1.776,0,0,0-.613.557,2.338,2.338,0,0,0-.327.8,4.282,4.282,0,0,0-.1.931,3.5,3.5,0,0,0,.1.863,2.361,2.361,0,0,0,.327.75,1.7,1.7,0,0,0,.585.525A1.991,1.991,0,0,0,416.8,19.4a1.852,1.852,0,0,0,.54-1.153h1.076a2.947,2.947,0,0,1-.885,1.837,2.776,2.776,0,0,1-1.937.646A3.352,3.352,0,0,1,414.3,20.5a2.529,2.529,0,0,1-.945-.667,2.859,2.859,0,0,1-.567-1.035,4.2,4.2,0,0,1-.192-1.314,4.644,4.644,0,0,1,.183-1.341,3.158,3.158,0,0,1,.566-1.089,2.64,2.64,0,0,1,.949-.728,3.082,3.082,0,0,1,1.321-.264,3.8,3.8,0,0,1,1.024.131,2.438,2.438,0,0,1,.842.4,2.234,2.234,0,0,1,.6.686,2.537,2.537,0,0,1,.3.981h-1.089A1.628,1.628,0,0,0,416.767,15.315Z" transform="translate(-373.748 -11.757)" fill="#1a1818"/>
      <path id="Trazado_365" data-name="Trazado 365" d="M423.429,20.586V19.571h-.017a2.177,2.177,0,0,1-.856.876,2.62,2.62,0,0,1-1.228.276,2.876,2.876,0,0,1-1.058-.168,1.666,1.666,0,0,1-.68-.473,1.742,1.742,0,0,1-.366-.738,3.9,3.9,0,0,1-.107-.948V14.184h1.054v4.332a1.262,1.262,0,0,0,.349.94,1.293,1.293,0,0,0,.952.346,2.178,2.178,0,0,0,.839-.148,1.552,1.552,0,0,0,.586-.422,1.815,1.815,0,0,0,.354-.635,2.584,2.584,0,0,0,.117-.8V14.184h1.056v6.4Z" transform="translate(-373.284 -11.748)" fill="#1a1818"/>
      <path id="Trazado_366" data-name="Trazado 366" d="M426.654,11.91v8.841H425.6V11.91Z" transform="translate(-372.823 -11.91)" fill="#1a1818"/>
      <path id="Trazado_367" data-name="Trazado 367" d="M430.9,14.325v.923h-1.281v3.977a1.162,1.162,0,0,0,.031.3.314.314,0,0,0,.117.175.561.561,0,0,0,.243.078,3.371,3.371,0,0,0,.406.02h.484v.92H430.1a3.767,3.767,0,0,1-.7-.056,1.068,1.068,0,0,1-.472-.2.877.877,0,0,1-.267-.423,2.415,2.415,0,0,1-.089-.717l0-4.07h-1.089v-.923h1.089V12.393h1.056v1.932Z" transform="translate(-372.689 -11.876)" fill="#1a1818"/>
      <path id="Trazado_368" data-name="Trazado 368" d="M436.056,20.586l.005-1.015h-.018a2.191,2.191,0,0,1-.856.876,2.624,2.624,0,0,1-1.231.276,2.858,2.858,0,0,1-1.055-.168,1.66,1.66,0,0,1-.682-.473,1.806,1.806,0,0,1-.366-.738,3.953,3.953,0,0,1-.1-.948V14.184H432.8v4.332a1.266,1.266,0,0,0,.35.94,1.289,1.289,0,0,0,.954.346,2.155,2.155,0,0,0,.834-.148,1.568,1.568,0,0,0,.588-.422,1.832,1.832,0,0,0,.353-.635,2.519,2.519,0,0,0,.118-.8V14.184h1.056v6.4Z" transform="translate(-372.385 -11.748)" fill="#1a1818"/>
      <path id="Trazado_369" data-name="Trazado 369" d="M439.139,14.194v1.35h.026a2.846,2.846,0,0,1,.937-1.153,2.369,2.369,0,0,1,1.411-.346V15.16a3.006,3.006,0,0,0-1.075.172,1.736,1.736,0,0,0-.719.508,2.1,2.1,0,0,0-.393.812,4.334,4.334,0,0,0-.125,1.1V20.6h-1.056V14.194Z" transform="translate(-371.93 -11.758)" fill="#1a1818"/>
      <path id="Trazado_370" data-name="Trazado 370" d="M446.966,20.732a.926.926,0,0,1-.656-.229.989.989,0,0,1-.241-.749,2.507,2.507,0,0,1-1.006.749,3.37,3.37,0,0,1-1.246.229,3.319,3.319,0,0,1-.819-.094,1.784,1.784,0,0,1-.673-.308,1.544,1.544,0,0,1-.461-.555,1.84,1.84,0,0,1-.165-.824,1.865,1.865,0,0,1,.184-.89,1.647,1.647,0,0,1,.491-.562,2.27,2.27,0,0,1,.694-.329c.261-.073.53-.136.8-.186.291-.058.566-.1.826-.127a4.7,4.7,0,0,0,.689-.124,1.162,1.162,0,0,0,.47-.237.563.563,0,0,0,.174-.449,1.044,1.044,0,0,0-.13-.558.872.872,0,0,0-.336-.321,1.349,1.349,0,0,0-.455-.15,3.648,3.648,0,0,0-.5-.036,2.2,2.2,0,0,0-1.114.255,1.077,1.077,0,0,0-.479.964h-1.057a2.251,2.251,0,0,1,.249-1,1.808,1.808,0,0,1,.594-.662,2.529,2.529,0,0,1,.854-.366,4.645,4.645,0,0,1,1.014-.109,6.226,6.226,0,0,1,.859.06,2.236,2.236,0,0,1,.774.254,1.489,1.489,0,0,1,.556.536,1.693,1.693,0,0,1,.212.9v3.284a2.563,2.563,0,0,0,.043.543c.029.117.129.174.292.174a1.007,1.007,0,0,0,.321-.061v.823A1.515,1.515,0,0,1,446.966,20.732ZM445.49,17.5c-.213.044-.439.082-.673.11s-.476.062-.717.1a2.674,2.674,0,0,0-.641.18,1.151,1.151,0,0,0-.465.353,1,1,0,0,0-.181.624.838.838,0,0,0,.105.439.856.856,0,0,0,.275.291,1.058,1.058,0,0,0,.392.162,2.294,2.294,0,0,0,.465.049,2.477,2.477,0,0,0,.893-.142,1.868,1.868,0,0,0,.608-.36,1.469,1.469,0,0,0,.348-.469,1.242,1.242,0,0,0,.111-.479V17.284A1.33,1.33,0,0,1,445.49,17.5Z" transform="translate(-371.677 -11.757)" fill="#1a1818"/>
      <path id="Trazado_371" data-name="Trazado 371" d="M449.335,11.91v8.841h-1.054V11.91Z" transform="translate(-371.209 -11.91)" fill="#1a1818"/>
      <path id="Trazado_372" data-name="Trazado 372" d="M381.646,33.007l0-.87h-.034a1.518,1.518,0,0,1-.814.767,3.091,3.091,0,0,1-1.223.236,2.9,2.9,0,0,1-1.292-.27,2.649,2.649,0,0,1-.915-.728,3.18,3.18,0,0,1-.548-1.064,4.307,4.307,0,0,1-.185-1.285,4.44,4.44,0,0,1,.179-1.286,3.035,3.035,0,0,1,.542-1.054,2.6,2.6,0,0,1,.916-.718,2.9,2.9,0,0,1,1.276-.267,3.275,3.275,0,0,1,.532.048,2.548,2.548,0,0,1,1.109.478,1.7,1.7,0,0,1,.424.476h.03V24.163H382.7v8.844Zm-3.775-2.274a2.268,2.268,0,0,0,.359.757,1.734,1.734,0,0,0,.619.532,1.87,1.87,0,0,0,.886.2,1.731,1.731,0,0,0,1.509-.761,2.234,2.234,0,0,0,.342-.77,3.717,3.717,0,0,0-.005-1.785,2.322,2.322,0,0,0-.354-.777,1.938,1.938,0,0,0-.623-.538,1.973,1.973,0,0,0-.93-.2,1.827,1.827,0,0,0-.907.212,1.68,1.68,0,0,0-.594.558,2.379,2.379,0,0,0-.32.789,4.209,4.209,0,0,0-.1.91A3.234,3.234,0,0,0,377.871,30.733Z" transform="translate(-376.306 -11.038)" fill="#1a1818"/>
      <path id="Trazado_373" data-name="Trazado 373" d="M388.36,32.444a2.9,2.9,0,0,1-1.8.543,3.3,3.3,0,0,1-1.33-.244,2.626,2.626,0,0,1-.947-.693,2.95,2.95,0,0,1-.573-1.064,5.261,5.261,0,0,1-.219-1.346,3.89,3.89,0,0,1,.224-1.336,3.218,3.218,0,0,1,.627-1.049,2.77,2.77,0,0,1,.951-.693,2.893,2.893,0,0,1,1.209-.247,2.643,2.643,0,0,1,1.414.351,2.773,2.773,0,0,1,.9.894,3.532,3.532,0,0,1,.47,1.187,5.045,5.045,0,0,1,.108,1.223h-4.788a2.549,2.549,0,0,0,.1.795,1.825,1.825,0,0,0,.359.668,1.767,1.767,0,0,0,.629.458,2.154,2.154,0,0,0,.9.175,1.806,1.806,0,0,0,1.091-.308,1.492,1.492,0,0,0,.561-.94h1.04A2.566,2.566,0,0,1,388.36,32.444Zm-.249-4.1a1.776,1.776,0,0,0-.951-.961,1.907,1.907,0,0,0-1.462,0,1.709,1.709,0,0,0-.565.392,1.866,1.866,0,0,0-.366.574,2.137,2.137,0,0,0-.162.7h3.669A2.033,2.033,0,0,0,388.111,28.342Z" transform="translate(-375.819 -10.885)" fill="#1a1818"/>
      <path id="Trazado_374" data-name="Trazado 374" d="M397.774,32.444a2.887,2.887,0,0,1-1.806.543,3.293,3.293,0,0,1-1.326-.244,2.613,2.613,0,0,1-.946-.693,3.059,3.059,0,0,1-.577-1.064,5.218,5.218,0,0,1-.211-1.346,3.839,3.839,0,0,1,.223-1.336,3.156,3.156,0,0,1,.623-1.049,2.78,2.78,0,0,1,.951-.693,2.9,2.9,0,0,1,1.207-.247,2.639,2.639,0,0,1,1.415.351,2.854,2.854,0,0,1,.905.894,3.72,3.72,0,0,1,.471,1.187,5.314,5.314,0,0,1,.1,1.223h-4.785a2.517,2.517,0,0,0,.1.795,1.8,1.8,0,0,0,.359.668,1.768,1.768,0,0,0,.627.458,2.178,2.178,0,0,0,.906.175,1.809,1.809,0,0,0,1.09-.308,1.5,1.5,0,0,0,.561-.94H398.7A2.583,2.583,0,0,1,397.774,32.444Zm-.251-4.1a1.718,1.718,0,0,0-.384-.577,1.807,1.807,0,0,0-.567-.383,1.9,1.9,0,0,0-1.458,0,1.677,1.677,0,0,0-.565.392,1.9,1.9,0,0,0-.37.574,2.164,2.164,0,0,0-.16.7h3.671A2.169,2.169,0,0,0,397.524,28.342Z" transform="translate(-375.148 -10.885)" fill="#1a1818"/>
      <path id="Trazado_375" data-name="Trazado 375" d="M400.271,31.419a1.08,1.08,0,0,0,.388.38,1.716,1.716,0,0,0,.541.207,3.257,3.257,0,0,0,.628.061,3.991,3.991,0,0,0,.514-.035,1.945,1.945,0,0,0,.5-.139.922.922,0,0,0,.374-.287.769.769,0,0,0,.15-.487.7.7,0,0,0-.31-.619,2.688,2.688,0,0,0-.772-.341q-.464-.125-1.007-.234a5.084,5.084,0,0,1-1.009-.295,2.107,2.107,0,0,1-.77-.537,1.4,1.4,0,0,1-.307-.963,1.5,1.5,0,0,1,.214-.829,1.786,1.786,0,0,1,.558-.56,2.6,2.6,0,0,1,.766-.322,3.591,3.591,0,0,1,.845-.1,5.216,5.216,0,0,1,1,.092,2.341,2.341,0,0,1,.809.322,1.647,1.647,0,0,1,.561.621,2.279,2.279,0,0,1,.25.97h-1.056a1.062,1.062,0,0,0-.16-.517,1.05,1.05,0,0,0-.346-.33,1.633,1.633,0,0,0-.461-.181,2.377,2.377,0,0,0-.513-.058,3.441,3.441,0,0,0-.477.037,1.739,1.739,0,0,0-.438.131.888.888,0,0,0-.322.251.632.632,0,0,0-.123.4.592.592,0,0,0,.191.449,1.476,1.476,0,0,0,.49.3,4.264,4.264,0,0,0,.668.2c.247.052.492.108.742.166s.521.131.771.212a2.55,2.55,0,0,1,.668.325,1.651,1.651,0,0,1,.47.514,1.539,1.539,0,0,1,.177.767,1.782,1.782,0,0,1-.24.963,1.891,1.891,0,0,1-.63.622,2.7,2.7,0,0,1-.876.328,5.491,5.491,0,0,1-.97.09,4.439,4.439,0,0,1-1.013-.111,2.426,2.426,0,0,1-.854-.364,1.847,1.847,0,0,1-.594-.667,2.375,2.375,0,0,1-.249-1.011h1.058A1.183,1.183,0,0,0,400.271,31.419Z" transform="translate(-374.711 -10.885)" fill="#1a1818"/>
      <path id="Trazado_376" data-name="Trazado 376" d="M406.306,26.463v.869h.028a1.57,1.57,0,0,1,.813-.776,3.043,3.043,0,0,1,1.225-.241,2.9,2.9,0,0,1,1.291.272,2.664,2.664,0,0,1,.915.735,3.364,3.364,0,0,1,.553,1.069,4.661,4.661,0,0,1,0,2.573,3.06,3.06,0,0,1-.541,1.055,2.547,2.547,0,0,1-.916.71,2.959,2.959,0,0,1-1.28.258,3.337,3.337,0,0,1-.525-.046,2.9,2.9,0,0,1-.574-.163,2.1,2.1,0,0,1-.537-.305,1.648,1.648,0,0,1-.426-.473h-.028V35.29h-1.058V26.463Zm3.776,2.262a2.406,2.406,0,0,0-.359-.758,1.76,1.76,0,0,0-.616-.535,1.9,1.9,0,0,0-.884-.2,1.744,1.744,0,0,0-1.506.761,2.347,2.347,0,0,0-.341.772,3.831,3.831,0,0,0,.007,1.786,2.247,2.247,0,0,0,.352.772,1.754,1.754,0,0,0,.624.538,1.939,1.939,0,0,0,.924.2,1.8,1.8,0,0,0,.908-.21,1.681,1.681,0,0,0,.584-.557,2.316,2.316,0,0,0,.321-.794,4.174,4.174,0,0,0,.1-.91A3.316,3.316,0,0,0,410.082,28.725Z" transform="translate(-374.27 -10.885)" fill="#1a1818"/>
      <path id="Trazado_377" data-name="Trazado 377" d="M417,32.987a.914.914,0,0,1-.652-.226,1,1,0,0,1-.24-.752,2.577,2.577,0,0,1-1.011.752,3.365,3.365,0,0,1-1.245.226,3.69,3.69,0,0,1-.82-.09,1.928,1.928,0,0,1-.671-.311,1.514,1.514,0,0,1-.46-.558,1.885,1.885,0,0,1-.167-.82,1.913,1.913,0,0,1,.187-.891,1.646,1.646,0,0,1,.49-.561,2.214,2.214,0,0,1,.694-.331c.26-.073.526-.137.8-.186s.564-.1.82-.127a4.843,4.843,0,0,0,.69-.124,1.158,1.158,0,0,0,.471-.234.583.583,0,0,0,.175-.454,1.052,1.052,0,0,0-.131-.556.869.869,0,0,0-.335-.321,1.388,1.388,0,0,0-.455-.149,3.8,3.8,0,0,0-.5-.037,2.226,2.226,0,0,0-1.112.255,1.081,1.081,0,0,0-.481.967h-1.057a2.25,2.25,0,0,1,.247-1,1.885,1.885,0,0,1,.593-.662,2.5,2.5,0,0,1,.856-.363,4.407,4.407,0,0,1,1.017-.114,6.074,6.074,0,0,1,.859.061,2.153,2.153,0,0,1,.773.255,1.468,1.468,0,0,1,.558.538,1.7,1.7,0,0,1,.209.9V31.35a2.553,2.553,0,0,0,.043.542c.031.117.13.175.294.175a1.086,1.086,0,0,0,.32-.061v.819A1.465,1.465,0,0,1,417,32.987Zm-1.475-3.229c-.215.045-.438.081-.675.111s-.473.063-.713.1a2.534,2.534,0,0,0-.641.178,1.2,1.2,0,0,0-.468.35,1.014,1.014,0,0,0-.179.628.831.831,0,0,0,.107.44.889.889,0,0,0,.27.29,1.217,1.217,0,0,0,.4.162,2.078,2.078,0,0,0,.464.048,2.489,2.489,0,0,0,.891-.142,1.906,1.906,0,0,0,.607-.358,1.42,1.42,0,0,0,.346-.473,1.162,1.162,0,0,0,.115-.476V29.54A1.344,1.344,0,0,1,415.529,29.758Z" transform="translate(-373.809 -10.885)" fill="#1a1818"/>
      <path id="Trazado_378" data-name="Trazado 378" d="M419.254,26.6v1.02h.035a2.221,2.221,0,0,1,2.078-1.159,2.754,2.754,0,0,1,1.052.175,1.7,1.7,0,0,1,.68.482,1.773,1.773,0,0,1,.364.734,3.857,3.857,0,0,1,.108.944v4.207h-1.058V28.674a1.262,1.262,0,0,0-.346-.939,1.28,1.28,0,0,0-.953-.349,2.09,2.09,0,0,0-.836.151,1.56,1.56,0,0,0-.592.421,1.837,1.837,0,0,0-.35.636,2.606,2.606,0,0,0-.117.8v3.614h-1.055V26.6Zm3.431-1.414a1.255,1.255,0,0,1-.39.278,1.408,1.408,0,0,1-.588.1,1.228,1.228,0,0,1-.379-.075c-.145-.049-.29-.108-.435-.171s-.3-.112-.439-.162a1.3,1.3,0,0,0-.393-.073.742.742,0,0,0-.408.138.4.4,0,0,0-.186.387h-.645a4.673,4.673,0,0,1,.178-.523,1.93,1.93,0,0,1,.255-.432,1.159,1.159,0,0,1,.359-.3,1.1,1.1,0,0,1,.511-.115,1.635,1.635,0,0,1,.477.075c.152.054.3.111.437.172s.279.122.416.18a1.122,1.122,0,0,0,.4.081.44.44,0,0,0,.377-.183,1.368,1.368,0,0,0,.192-.37h.642A2.146,2.146,0,0,1,422.685,25.19Z" transform="translate(-373.344 -11.035)" fill="#1a1818"/>
      <path id="Trazado_379" data-name="Trazado 379" d="M429.633,32.987a.914.914,0,0,1-.651-.226.994.994,0,0,1-.245-.752,2.5,2.5,0,0,1-1.006.752,3.388,3.388,0,0,1-1.247.226,3.637,3.637,0,0,1-.816-.09,1.935,1.935,0,0,1-.674-.311,1.5,1.5,0,0,1-.458-.558,2.168,2.168,0,0,1,.02-1.712,1.63,1.63,0,0,1,.487-.561,2.254,2.254,0,0,1,.7-.331c.261-.073.527-.137.8-.186.29-.056.563-.1.823-.127a4.94,4.94,0,0,0,.689-.124,1.139,1.139,0,0,0,.47-.234.579.579,0,0,0,.175-.454,1.042,1.042,0,0,0-.131-.556.874.874,0,0,0-.334-.321,1.393,1.393,0,0,0-.457-.149,3.809,3.809,0,0,0-.5-.037,2.241,2.241,0,0,0-1.115.255,1.082,1.082,0,0,0-.48.967H424.62a2.279,2.279,0,0,1,.249-1,1.883,1.883,0,0,1,.6-.662,2.416,2.416,0,0,1,.854-.363,4.394,4.394,0,0,1,1.014-.114,5.989,5.989,0,0,1,.857.061,2.129,2.129,0,0,1,.775.255,1.469,1.469,0,0,1,.561.538,1.712,1.712,0,0,1,.208.9V31.35a2.355,2.355,0,0,0,.043.542c.029.117.126.175.291.175a1.08,1.08,0,0,0,.321-.061v.819A1.468,1.468,0,0,1,429.633,32.987Zm-1.474-3.229c-.214.045-.438.081-.675.111s-.473.063-.713.1a2.577,2.577,0,0,0-.643.178,1.171,1.171,0,0,0-.465.35,1.007,1.007,0,0,0-.179.628.851.851,0,0,0,.1.44.885.885,0,0,0,.272.29,1.184,1.184,0,0,0,.4.162,2.08,2.08,0,0,0,.462.048,2.485,2.485,0,0,0,.893-.142,1.942,1.942,0,0,0,.609-.358,1.494,1.494,0,0,0,.345-.473,1.211,1.211,0,0,0,.112-.476V29.54A1.334,1.334,0,0,1,428.159,29.758Z" transform="translate(-372.91 -10.885)" fill="#1a1818"/>
      <path id="Trazado_380" data-name="Trazado 380" d="M379.75,38.839v.92h-1.279v3.978a1.138,1.138,0,0,0,.032.3.319.319,0,0,0,.118.171.541.541,0,0,0,.242.081c.1.011.239.016.4.016h.483v.924h-.808a3.775,3.775,0,0,1-.7-.056,1.011,1.011,0,0,1-.471-.207.856.856,0,0,1-.268-.418,2.46,2.46,0,0,1-.086-.72l0-4.071h-1.09v-.92h1.09V36.9h1.053v1.934Z" transform="translate(-376.328 -10.132)" fill="#1a1818"/>
      <path id="Trazado_381" data-name="Trazado 381" d="M385.143,44.7a2.839,2.839,0,0,1-1.8.551A3.278,3.278,0,0,1,382.012,45a2.528,2.528,0,0,1-.943-.691,2.913,2.913,0,0,1-.577-1.063,5.24,5.24,0,0,1-.215-1.347,3.826,3.826,0,0,1,.224-1.333,3.108,3.108,0,0,1,.626-1.049,2.842,2.842,0,0,1,.951-.7,2.942,2.942,0,0,1,1.205-.246,2.647,2.647,0,0,1,1.418.353,2.813,2.813,0,0,1,.9.9,3.561,3.561,0,0,1,.469,1.188,4.944,4.944,0,0,1,.106,1.218h-4.786a2.626,2.626,0,0,0,.1.8,1.9,1.9,0,0,0,.358.665,1.732,1.732,0,0,0,.631.462,2.145,2.145,0,0,0,.9.171,1.8,1.8,0,0,0,1.091-.308,1.5,1.5,0,0,0,.563-.939h1.037A2.526,2.526,0,0,1,385.143,44.7Zm-.247-4.1a1.786,1.786,0,0,0-1.673-1.1,1.811,1.811,0,0,0-.736.142,1.742,1.742,0,0,0-.561.39,1.857,1.857,0,0,0-.373.578,2.309,2.309,0,0,0-.161.7h3.671A2.175,2.175,0,0,0,384.9,40.6Z" transform="translate(-376.047 -10.013)" fill="#1a1818"/>
      <path id="Trazado_382" data-name="Trazado 382" d="M391.637,46.921a2.937,2.937,0,0,1-2.255.776,4.442,4.442,0,0,1-.908-.1,2.679,2.679,0,0,1-.841-.328,1.883,1.883,0,0,1-.623-.581,1.608,1.608,0,0,1-.273-.879h1.052a.8.8,0,0,0,.18.482,1.4,1.4,0,0,0,.408.322,1.979,1.979,0,0,0,.524.18,3.073,3.073,0,0,0,.545.055,1.966,1.966,0,0,0,.875-.179,1.7,1.7,0,0,0,.594-.494,2.1,2.1,0,0,0,.336-.762,4.206,4.206,0,0,0,.106-.976V44.02h-.024a1.78,1.78,0,0,1-.824.874,2.56,2.56,0,0,1-1.17.275,2.812,2.812,0,0,1-1.252-.258,2.654,2.654,0,0,1-.891-.7,3.009,3.009,0,0,1-.536-1.025,4.139,4.139,0,0,1-.18-1.241,4.864,4.864,0,0,1,.148-1.168,3.161,3.161,0,0,1,.5-1.09,2.691,2.691,0,0,1,.91-.8,2.843,2.843,0,0,1,1.4-.316,2.317,2.317,0,0,1,1.112.271,1.813,1.813,0,0,1,.794.793h.012v-.913h1v5.848A3.376,3.376,0,0,1,391.637,46.921Zm-1.344-2.886a1.81,1.81,0,0,0,.588-.569,2.515,2.515,0,0,0,.326-.8,3.7,3.7,0,0,0,.106-.89,3.45,3.45,0,0,0-.1-.827,2.286,2.286,0,0,0-.316-.739,1.578,1.578,0,0,0-1.405-.719,1.835,1.835,0,0,0-.869.192,1.678,1.678,0,0,0-.586.511,2.13,2.13,0,0,0-.335.743,3.658,3.658,0,0,0-.1.877,4.044,4.044,0,0,0,.089.861,2.318,2.318,0,0,0,.3.788,1.734,1.734,0,0,0,.557.569,1.623,1.623,0,0,0,.865.214A1.735,1.735,0,0,0,390.293,44.035Z" transform="translate(-375.606 -10.013)" fill="#1a1818"/>
      <path id="Trazado_383" data-name="Trazado 383" d="M397.743,45.1V44.086h-.017a2.131,2.131,0,0,1-.855.872,2.538,2.538,0,0,1-1.229.28,2.942,2.942,0,0,1-1.054-.167,1.691,1.691,0,0,1-.683-.479,1.811,1.811,0,0,1-.368-.74,4.056,4.056,0,0,1-.1-.947V38.694h1.055V43.03a1.266,1.266,0,0,0,.346.937,1.289,1.289,0,0,0,.953.346,2.148,2.148,0,0,0,.836-.145,1.551,1.551,0,0,0,.589-.424,1.787,1.787,0,0,0,.351-.636,2.632,2.632,0,0,0,.119-.8V38.694h1.056V45.1Z" transform="translate(-375.111 -10.004)" fill="#1a1818"/>
      <path id="Trazado_384" data-name="Trazado 384" d="M403.711,39.828a1.6,1.6,0,0,0-1.064-.334,1.941,1.941,0,0,0-.954.212,1.677,1.677,0,0,0-.616.552,2.328,2.328,0,0,0-.325.8,4.178,4.178,0,0,0-.1.935,3.415,3.415,0,0,0,.1.859,2.332,2.332,0,0,0,.331.75,1.673,1.673,0,0,0,.578.525,2,2,0,0,0,2.076-.212,1.853,1.853,0,0,0,.542-1.149h1.075a2.969,2.969,0,0,1-.888,1.835,2.763,2.763,0,0,1-1.937.648,3.422,3.422,0,0,1-1.3-.234,2.5,2.5,0,0,1-.939-.667,2.946,2.946,0,0,1-.571-1.035,4.218,4.218,0,0,1-.192-1.316,4.633,4.633,0,0,1,.186-1.342,3.047,3.047,0,0,1,.563-1.086,2.521,2.521,0,0,1,.948-.725,3.048,3.048,0,0,1,1.324-.271,3.868,3.868,0,0,1,1.021.13,2.518,2.518,0,0,1,.844.4,2.206,2.206,0,0,1,.6.682,2.592,2.592,0,0,1,.3.984h-1.093A1.6,1.6,0,0,0,403.711,39.828Z" transform="translate(-374.677 -10.013)" fill="#1a1818"/>
      <path id="Trazado_385" data-name="Trazado 385" d="M406.116,37.713V36.421h1.058v1.292Zm1.058,1.148v6.4h-1.058v-6.4Z" transform="translate(-374.209 -10.166)" fill="#1a1818"/>
      <path id="Trazado_386" data-name="Trazado 386" d="M413.46,46.921a2.924,2.924,0,0,1-2.249.776,4.488,4.488,0,0,1-.912-.1,2.711,2.711,0,0,1-.841-.328,1.925,1.925,0,0,1-.627-.581,1.662,1.662,0,0,1-.27-.879h1.054a.775.775,0,0,0,.179.482,1.4,1.4,0,0,0,.406.322,2.019,2.019,0,0,0,.524.18,3.082,3.082,0,0,0,.544.055,1.971,1.971,0,0,0,.878-.179,1.626,1.626,0,0,0,.59-.494,2.014,2.014,0,0,0,.34-.762,4.269,4.269,0,0,0,.1-.976V44.02h-.022a1.789,1.789,0,0,1-.824.874,2.555,2.555,0,0,1-1.169.275,2.8,2.8,0,0,1-1.25-.258,2.577,2.577,0,0,1-.89-.7,2.975,2.975,0,0,1-.538-1.025,4.208,4.208,0,0,1-.18-1.241,4.864,4.864,0,0,1,.148-1.168,3.129,3.129,0,0,1,.494-1.09,2.719,2.719,0,0,1,.916-.8,2.841,2.841,0,0,1,1.4-.316,2.334,2.334,0,0,1,1.114.271,1.831,1.831,0,0,1,.792.793h.009v-.913h1v5.848A3.377,3.377,0,0,1,413.46,46.921Zm-1.344-2.886a1.769,1.769,0,0,0,.588-.569,2.625,2.625,0,0,0,.33-.8,3.991,3.991,0,0,0,.1-.89,3.451,3.451,0,0,0-.1-.827,2.238,2.238,0,0,0-.315-.739,1.7,1.7,0,0,0-.566-.525,1.673,1.673,0,0,0-.84-.194,1.817,1.817,0,0,0-.867.192,1.648,1.648,0,0,0-.588.511,2.191,2.191,0,0,0-.336.743,3.657,3.657,0,0,0-.1.877,4.335,4.335,0,0,0,.087.861,2.537,2.537,0,0,0,.3.788,1.741,1.741,0,0,0,.559.569,1.623,1.623,0,0,0,.868.214A1.724,1.724,0,0,0,412.116,44.035Z" transform="translate(-374.053 -10.013)" fill="#1a1818"/>
      <path id="Trazado_387" data-name="Trazado 387" d="M420.2,45.246a.922.922,0,0,1-.653-.229,1,1,0,0,1-.243-.748,2.511,2.511,0,0,1-1.007.748,3.359,3.359,0,0,1-1.247.229,3.613,3.613,0,0,1-.817-.091,1.973,1.973,0,0,1-.673-.313,1.549,1.549,0,0,1-.457-.556,1.836,1.836,0,0,1-.169-.824,1.855,1.855,0,0,1,.19-.888,1.563,1.563,0,0,1,.487-.564,2.178,2.178,0,0,1,.7-.327c.261-.076.527-.136.8-.186.29-.058.567-.1.824-.129a4.889,4.889,0,0,0,.689-.126,1.157,1.157,0,0,0,.471-.234.576.576,0,0,0,.175-.452,1.077,1.077,0,0,0-.132-.559.879.879,0,0,0-.333-.321,1.341,1.341,0,0,0-.458-.148,4.16,4.16,0,0,0-.5-.035,2.226,2.226,0,0,0-1.112.253,1.078,1.078,0,0,0-.482.964h-1.057a2.277,2.277,0,0,1,.25-1,1.934,1.934,0,0,1,.59-.662,2.455,2.455,0,0,1,.859-.363,4.379,4.379,0,0,1,1.013-.114,5.78,5.78,0,0,1,.86.064,2.235,2.235,0,0,1,.773.252,1.431,1.431,0,0,1,.558.538,1.71,1.71,0,0,1,.212.9v3.284a2.567,2.567,0,0,0,.04.543c.032.117.127.171.292.171a.964.964,0,0,0,.321-.061v.822A1.476,1.476,0,0,1,420.2,45.246Zm-1.474-3.23c-.215.04-.441.078-.677.11s-.473.06-.712.1a2.8,2.8,0,0,0-.642.178,1.193,1.193,0,0,0-.467.353,1,1,0,0,0-.179.629.829.829,0,0,0,.378.728,1.189,1.189,0,0,0,.4.163,2.2,2.2,0,0,0,.463.046,2.547,2.547,0,0,0,.892-.139,1.917,1.917,0,0,0,.608-.359,1.429,1.429,0,0,0,.344-.471,1.168,1.168,0,0,0,.112-.48V41.8A1.349,1.349,0,0,1,418.731,42.017Z" transform="translate(-373.581 -10.013)" fill="#1a1818"/>
      <path id="Trazado_388" data-name="Trazado 388" d="M422.576,36.421v8.844h-1.057V36.421Z" transform="translate(-373.113 -10.166)" fill="#1a1818"/>
      <path id="Trazado_389" data-name="Trazado 389" d="M425.125,38.721v.865h.032a1.548,1.548,0,0,1,.815-.776,3.066,3.066,0,0,1,1.223-.241,2.909,2.909,0,0,1,1.289.272,2.639,2.639,0,0,1,.916.736,3.338,3.338,0,0,1,.551,1.069,4.443,4.443,0,0,1,.182,1.285,4.488,4.488,0,0,1-.18,1.284,3.025,3.025,0,0,1-.541,1.059,2.591,2.591,0,0,1-.916.71,2.954,2.954,0,0,1-1.277.26,3.282,3.282,0,0,1-.527-.05,3.117,3.117,0,0,1-.571-.161,2.382,2.382,0,0,1-.54-.3,1.619,1.619,0,0,1-.424-.479h-.032v3.3H424.07V38.721Zm3.777,2.261a2.411,2.411,0,0,0-.356-.761,1.822,1.822,0,0,0-.618-.535,1.9,1.9,0,0,0-.882-.194,1.753,1.753,0,0,0-1.508.758,2.4,2.4,0,0,0-.34.774,3.78,3.78,0,0,0-.1.877,3.7,3.7,0,0,0,.108.906,2.257,2.257,0,0,0,.351.772,1.78,1.78,0,0,0,.623.537,1.97,1.97,0,0,0,.924.2,1.81,1.81,0,0,0,.909-.209,1.663,1.663,0,0,0,.587-.557,2.456,2.456,0,0,0,.32-.787,4.3,4.3,0,0,0,.1-.915A3.222,3.222,0,0,0,428.9,40.982Z" transform="translate(-372.931 -10.013)" fill="#1a1818"/>
      <path id="Trazado_390" data-name="Trazado 390" d="M435.827,45.246a.924.924,0,0,1-.656-.229,1.01,1.01,0,0,1-.239-.748,2.532,2.532,0,0,1-1.009.748,3.36,3.36,0,0,1-1.247.229,3.56,3.56,0,0,1-.815-.091,1.969,1.969,0,0,1-.676-.313,1.548,1.548,0,0,1-.457-.556,2.139,2.139,0,0,1,.021-1.712,1.558,1.558,0,0,1,.485-.564,2.216,2.216,0,0,1,.7-.327,7.961,7.961,0,0,1,.8-.186c.288-.058.565-.1.824-.129a4.939,4.939,0,0,0,.69-.126,1.162,1.162,0,0,0,.469-.234.575.575,0,0,0,.172-.452,1.057,1.057,0,0,0-.13-.559.939.939,0,0,0-.331-.321,1.354,1.354,0,0,0-.459-.148,4.2,4.2,0,0,0-.5-.035,2.232,2.232,0,0,0-1.112.253,1.09,1.09,0,0,0-.483.964h-1.053a2.22,2.22,0,0,1,.247-1,1.9,1.9,0,0,1,.593-.662,2.433,2.433,0,0,1,.855-.363,4.405,4.405,0,0,1,1.013-.114,5.819,5.819,0,0,1,.862.064,2.235,2.235,0,0,1,.773.252,1.438,1.438,0,0,1,.558.538,1.721,1.721,0,0,1,.209.9v3.284a2.442,2.442,0,0,0,.044.543c.029.117.128.171.29.171a.985.985,0,0,0,.323-.061v.822A1.486,1.486,0,0,1,435.827,45.246Zm-1.477-3.23c-.212.04-.439.078-.675.11s-.472.06-.709.1a2.794,2.794,0,0,0-.646.178,1.216,1.216,0,0,0-.467.353,1,1,0,0,0-.177.629.874.874,0,0,0,.107.439.855.855,0,0,0,.267.289,1.251,1.251,0,0,0,.4.163,2.212,2.212,0,0,0,.462.046,2.574,2.574,0,0,0,.9-.139,1.87,1.87,0,0,0,.6-.359,1.4,1.4,0,0,0,.347-.471,1.151,1.151,0,0,0,.112-.48V41.8A1.339,1.339,0,0,1,434.35,42.017Z" transform="translate(-372.47 -10.013)" fill="#1a1818"/>
    </g>
    <path id="Trazado_391" data-name="Trazado 391" d="M364.6,26.359l-1.686-6.294-5.119,1.373a4.378,4.378,0,0,1-.669,2.337,3.618,3.618,0,0,1-2.3,1.772,4.347,4.347,0,0,1-2.334.072,3.6,3.6,0,0,1-1.7-1.036,6.006,6.006,0,0,1-1.142-1.793,18.654,18.654,0,0,1-.79-2.361,15.677,15.677,0,0,1-.469-2.444,7.161,7.161,0,0,1,.086-2.144,3.438,3.438,0,0,1,.923-1.768,4.407,4.407,0,0,1,2.057-1.1,3.594,3.594,0,0,1,2.689.168,3.411,3.411,0,0,1,1.712,2.072l5.352-1.511-1.671-6.23-20.08,5.379a13.168,13.168,0,0,0-1.159,3.133,10.273,10.273,0,0,0-2.253-2.217L315.623,19.23l2.533,9.45,2.529,9.445,6.255-1.676,6.254-1.675,2.555,9.539,2.772,10.357,18.9-5.063-1.895-7.076L350.6,43.848a3.7,3.7,0,0,1-1.368,1.855,6.832,6.832,0,0,1-2.377,1.146,4.918,4.918,0,0,1-4-.43,6.211,6.211,0,0,1-2.534-3.329l14.322-3.839-2.557-9.542,6.253-1.672Zm-24.933-.066c-.546.146-5.934,1.571-5.934,1.571a4.4,4.4,0,0,1-.521,2.491,3.486,3.486,0,0,1-2.26,1.774,4.342,4.342,0,0,1-2.318.052,3.66,3.66,0,0,1-1.695-1.055,6.029,6.029,0,0,1-1.141-1.8,19.318,19.318,0,0,1-.8-2.372,15.773,15.773,0,0,1-.48-2.463,7.351,7.351,0,0,1,.067-2.16,3.464,3.464,0,0,1,.9-1.782,4.281,4.281,0,0,1,2.02-1.12,3.456,3.456,0,0,1,2.648.15,3.23,3.23,0,0,1,1.693,1.99l6.1-1.636a15.376,15.376,0,0,0,.528,3.293A18.122,18.122,0,0,0,339.665,26.292ZM343.8,36.559l-4.824,1.29a4.891,4.891,0,0,1,3.9-5.8,4.473,4.473,0,0,1,5.747,3.215Z" transform="translate(-315.623 -3.708)" fill="#1a1818"/>
  </g>
</svg>
