<svg id="Grupo_53" data-name="Grupo 53" xmlns="http://www.w3.org/2000/svg" width="123.719" height="81.322" viewBox="0 0 123.719 81.322">
  <g id="Grupo_49" data-name="Grupo 49" transform="translate(39.448 15.183)">
    <path id="Trazado_250" data-name="Trazado 250" d="M439.39,247.487h-1.515a2.425,2.425,0,0,1,.5-1.781,3.041,3.041,0,0,1,1.963-.424l-.024-3.587a8.778,8.778,0,0,0-3.344.557,4.506,4.506,0,0,0-2.181,1.769,6.415,6.415,0,0,0-.776,3.466h-2.145l.872,3.32h1.272V259.9h3.865v-9.088h2.375Z" transform="translate(-431.865 -241.695)" fill="#3899b7"/>
    <path id="Trazado_251" data-name="Trazado 251" d="M508.35,285.438a6.738,6.738,0,0,0-2.29-1.381,7.674,7.674,0,0,0-5.368,0,7.358,7.358,0,0,0-2.29,1.393,6.358,6.358,0,0,0-2.133,4.762,6.184,6.184,0,0,0,.982,3.417,6.822,6.822,0,0,0,2.617,2.387,7.423,7.423,0,0,0,3.5.872,7.512,7.512,0,0,0,2.69-.5A7.226,7.226,0,0,0,508.35,295a6.826,6.826,0,0,0,1.575-2.145,6.071,6.071,0,0,0,.557-2.642,6.311,6.311,0,0,0-.57-2.642A6.877,6.877,0,0,0,508.35,285.438Zm-2.7,7a3.233,3.233,0,0,1-4.544,0,3,3,0,0,1-.969-2.23,2.833,2.833,0,0,1,.448-1.563,3.477,3.477,0,0,1,1.2-1.139,3.205,3.205,0,0,1,3.187,0,3.476,3.476,0,0,1,1.2,1.139,2.832,2.832,0,0,1,.448,1.563A3,3,0,0,1,505.648,292.442Z" transform="translate(-488.125 -278.277)" fill="#3899b7"/>
    <path id="Trazado_252" data-name="Trazado 252" d="M619.04,283.764h-.218q-5.362.273-5.356,5.562v7.331h3.878v-7.331c0-1.333.5-2.024,1.478-2.06h.218c.981.036,1.478.727,1.478,2.06v7.331H624.4v-7.331Q624.4,284.037,619.04,283.764Z" transform="translate(-590.503 -278.444)" fill="#3899b7"/>
    <path id="Trazado_253" data-name="Trazado 253" d="M715.043,249.074v5.113l-.279-.121-.279-.121a7.859,7.859,0,0,0-5.368,0,6.73,6.73,0,0,0-2.29,1.393,6.558,6.558,0,0,0-1.563,2.121,6.256,6.256,0,0,0-.569,2.629,6.069,6.069,0,0,0,.557,2.642,6.644,6.644,0,0,0,1.575,2.133,7.056,7.056,0,0,0,2.29,1.393,7.512,7.512,0,0,0,2.69.5,7.388,7.388,0,0,0,3.5-.872,6.611,6.611,0,0,0,2.617-2.375,6.133,6.133,0,0,0,.981-3.332V249.086Zm-.97,13.244a3.232,3.232,0,0,1-4.544,0,3,3,0,0,1-.969-2.23,2.793,2.793,0,0,1,.448-1.551,3.476,3.476,0,0,1,1.2-1.139,3.205,3.205,0,0,1,3.187,0,3.475,3.475,0,0,1,1.2,1.139,2.792,2.792,0,0,1,.448,1.551A3,3,0,0,1,714.074,262.318Z" transform="translate(-670.196 -248.141)" fill="#3899b7"/>
  </g>
  <g id="Grupo_50" data-name="Grupo 50" transform="translate(94.422 0)">
    <path id="Trazado_254" data-name="Trazado 254" d="M866.621,151.117l15.809,8.553V174.7h7.775V153.967l-23.584-14Z" transform="translate(-866.621 -137.652)" fill="#f69600"/>
    <ellipse id="Elipse_12" data-name="Elipse 12" cx="6.136" cy="6.136" rx="6.136" ry="6.136" transform="translate(17.024)" fill="#f69600"/>
  </g>
  <ellipse id="Elipse_13" data-name="Elipse 13" cx="6.789" cy="6.789" rx="6.789" ry="6.789" transform="translate(89.152 20.444)" fill="#e24215"/>
  <g id="Grupo_51" data-name="Grupo 51" transform="translate(0 28.01)">
    <path id="Trazado_255" data-name="Trazado 255" d="M586.136,343.138l-23.584,14v11.824c-.144,2.978-.186,6.578-3.124,6.8-3.186.238-4.074-1.719-4.419-5.1V360.9q0-10.7-10.87-11.288H543.7a13.288,13.288,0,0,0-6.911,2.066,13.455,13.455,0,0,0-6.935-2.066h-.443q-10.883.59-10.87,11.288v14.9h7.87V360.9c0-2.681,1.008-4.082,3-4.156h.443c1.869.074,2.853,1.279,2.976,3.566V375.8h7.895V360.306c.123-2.287,1.107-3.492,2.976-3.566h.443c1.835.068,2.835,1.264,2.981,3.548.065,4.548-.433,10.379.644,14.961l.008.178.036,0c1.354,5.505,5.053,9.133,14.887,6.4V385.2h-.024a4.681,4.681,0,0,1-9.346,0l-7.107,4.156c3.194,9.207,19.857,9.654,23.487.175,1.164-.881.878-17.64.789-26.783l15.644-8.463Z" transform="translate(-468.129 -343.138)" fill="#086273"/>
    <path id="Trazado_256" data-name="Trazado 256" d="M134.358,413.962A6.335,6.335,0,0,1,130.89,413a5.949,5.949,0,0,1-2.336-2.533,7.825,7.825,0,0,1-.812-3.615,5.666,5.666,0,0,1,1.894-4.328,6.516,6.516,0,0,1,4.574-1.746,8.4,8.4,0,0,1,2.754.443,7.826,7.826,0,0,1,2.312,1.328l4.082-5.558a13.875,13.875,0,0,0-4.255-2.287,16.033,16.033,0,0,0-4.894-.787,16.326,16.326,0,0,0-5.73,1.008,12.738,12.738,0,0,0-7.525,7.255,14.316,14.316,0,0,0-1.058,5.657,12.612,12.612,0,0,0,6.763,11.19,15.37,15.37,0,0,0,7.55,1.8,16.707,16.707,0,0,0,3.32-.369,15.268,15.268,0,0,0,3.492-1.131,8.4,8.4,0,0,0,2.607-1.746l-4.3-5.46A7.187,7.187,0,0,1,134.358,413.962Z" transform="translate(-119.897 -387.498)" fill="#086273"/>
    <path id="Trazado_257" data-name="Trazado 257" d="M307.784,398.1a13.709,13.709,0,0,0-4.624-2.8,15.219,15.219,0,0,0-5.46-.984,15.444,15.444,0,0,0-5.46,1.008,14.237,14.237,0,0,0-4.623,2.779,12.958,12.958,0,0,0-3.173,4.279,12.81,12.81,0,0,0-1.156,5.361,12.529,12.529,0,0,0,1.992,6.911,13.789,13.789,0,0,0,5.312,4.82,15.316,15.316,0,0,0,12.567.738c.148-.049.541-.2,1.156-.467v.738l7.8.074.025-12.813a12.811,12.811,0,0,0-1.156-5.361A14.136,14.136,0,0,0,307.784,398.1Zm-5.46,14.141a6.623,6.623,0,0,1-9.222,0,6.04,6.04,0,0,1-1.968-4.5,5.749,5.749,0,0,1,.91-3.173,7.056,7.056,0,0,1,2.435-2.312,6.427,6.427,0,0,1,3.222-.836,6.518,6.518,0,0,1,3.246.836,7.056,7.056,0,0,1,2.435,2.312,5.748,5.748,0,0,1,.91,3.173A6.04,6.04,0,0,1,302.324,412.237Z" transform="translate(-262.628 -387.838)" fill="#086273"/>
  </g>
  <g id="Grupo_52" data-name="Grupo 52" transform="translate(18.713 64.899)">
    <path id="Trazado_258" data-name="Trazado 258" d="M295.331,639.676h2.106v.631h-1.318v.682h.986v.613h-.986v1.309h-.788Z" transform="translate(-291.861 -639.068)" fill="#3899b7"/>
    <path id="Trazado_259" data-name="Trazado 259" d="M315.352,647.276a1.323,1.323,0,1,1,1.345-1.322A1.276,1.276,0,0,1,315.352,647.276Zm0-.682a.563.563,0,0,0,.544-.64c0-.438-.258-.641-.535-.641s-.534.2-.534.641S315.066,646.594,315.352,646.594Z" transform="translate(-308.191 -643.396)" fill="#3899b7"/>
    <path id="Trazado_260" data-name="Trazado 260" d="M340.252,645.906a.5.5,0,1,0-.986,0v1.4h-.788v-2.571h.788v.341a.942.942,0,0,1,.779-.369.973.973,0,0,1,.991,1.1v1.5h-.783Z" transform="translate(-329.552 -643.46)" fill="#3899b7"/>
    <path id="Trazado_261" data-name="Trazado 261" d="M362.934,639.093a.944.944,0,0,1,.792.392v-1.193h.788v3.41h-.788v-.369a.889.889,0,0,1-.792.406,1.338,1.338,0,0,1,0-2.645Zm.23.687a.572.572,0,0,0-.562.631.581.581,0,0,0,.562.64.641.641,0,0,0,0-1.272Z" transform="translate(-349.926 -637.858)" fill="#3899b7"/>
    <path id="Trazado_262" data-name="Trazado 262" d="M387.872,647.276a1.323,1.323,0,1,1,1.345-1.322A1.276,1.276,0,0,1,387.872,647.276Zm0-.682a.563.563,0,0,0,.544-.64c0-.438-.258-.641-.534-.641s-.534.2-.534.641S387.586,646.594,387.872,646.594Z" transform="translate(-371.541 -643.396)" fill="#3899b7"/>
    <path id="Trazado_263" data-name="Trazado 263" d="M420.3,644.631a1.338,1.338,0,0,1,0,2.645.925.925,0,0,1-.792-.4v1.585h-.788v-3.8h.788v.364A.906.906,0,0,1,420.3,644.631Zm-.235.687a.64.64,0,1,0,.567.631A.576.576,0,0,0,420.068,645.318Z" transform="translate(-399.65 -643.396)" fill="#3899b7"/>
    <path id="Trazado_264" data-name="Trazado 264" d="M443.361,644.631a.9.9,0,0,1,.792.4v-.364h.788v2.571h-.788v-.364a.909.909,0,0,1-.8.4,1.339,1.339,0,0,1,0-2.645Zm.23.687a.572.572,0,0,0-.562.631.581.581,0,0,0,.562.64.641.641,0,0,0,0-1.272Z" transform="translate(-420.183 -643.396)" fill="#3899b7"/>
    <path id="Trazado_265" data-name="Trazado 265" d="M469,647.3h-.788v-2.571H469v.428a.958.958,0,0,1,.806-.456v.834h-.217c-.373,0-.59.129-.59.571Z" transform="translate(-442.879 -643.46)" fill="#3899b7"/>
    <path id="Trazado_266" data-name="Trazado 266" d="M483.7,644.631a.9.9,0,0,1,.792.4v-.364h.788v2.571h-.788v-.364a.909.909,0,0,1-.8.4,1.339,1.339,0,0,1,0-2.645Zm.23.687a.572.572,0,0,0-.562.631.581.581,0,0,0,.562.64.641.641,0,0,0,0-1.272Z" transform="translate(-455.422 -643.396)" fill="#3899b7"/>
    <path id="Trazado_267" data-name="Trazado 267" d="M516.369,639.676h.788v2.2a.976.976,0,0,1-1.064,1.064,1.037,1.037,0,0,1-1.129-1.115h.783c0,.276.12.41.323.41s.3-.12.3-.359Z" transform="translate(-483.722 -639.068)" fill="#3899b7"/>
    <path id="Trazado_268" data-name="Trazado 268" d="M537.428,638.745a1.322,1.322,0,1,1,1.345-1.322A1.276,1.276,0,0,1,537.428,638.745Zm0-.682a.563.563,0,0,0,.544-.64c0-.438-.258-.641-.534-.641s-.534.2-.534.641S537.142,638.063,537.428,638.063Zm.608-3.2v.613l-1.11.465V635.4Z" transform="translate(-502.186 -634.865)" fill="#3899b7"/>
    <path id="Trazado_269" data-name="Trazado 269" d="M559.465,644.923l.557,1.834.558-1.834h.839l-.912,2.571h-.972l-.912-2.571Z" transform="translate(-521.859 -643.651)" fill="#3899b7"/>
    <path id="Trazado_270" data-name="Trazado 270" d="M583.426,647.276a1.323,1.323,0,0,1,0-2.645,1.212,1.212,0,0,1,1.281,1.281,2.019,2.019,0,0,1-.014.23H582.91a.477.477,0,0,0,.488.493.419.419,0,0,0,.41-.249h.839A1.2,1.2,0,0,1,583.426,647.276Zm-.511-1.571h.986a.445.445,0,0,0-.484-.442A.487.487,0,0,0,582.915,645.7Z" transform="translate(-542.392 -643.396)" fill="#3899b7"/>
    <path id="Trazado_271" data-name="Trazado 271" d="M607.587,645.906a.5.5,0,1,0-.986,0v1.4h-.788v-2.571h.788v.341a.942.942,0,0,1,.779-.369.973.973,0,0,1,.991,1.1v1.5h-.783Z" transform="translate(-563.083 -643.46)" fill="#3899b7"/>
    <path id="Trazado_272" data-name="Trazado 272" d="M630.437,647.276a1.323,1.323,0,0,1,0-2.645,1.211,1.211,0,0,1,1.281,1.281,2.018,2.018,0,0,1-.014.23h-1.783a.477.477,0,0,0,.488.493.419.419,0,0,0,.41-.249h.839A1.2,1.2,0,0,1,630.437,647.276Zm-.511-1.571h.986a.444.444,0,0,0-.484-.442A.487.487,0,0,0,629.926,645.7Z" transform="translate(-583.458 -643.396)" fill="#3899b7"/>
    <path id="Trazado_273" data-name="Trazado 273" d="M652.915,647.276a1.061,1.061,0,0,1-1.184-.88h.779a.361.361,0,0,0,.4.3c.2,0,.309-.092.309-.207,0-.415-1.4-.115-1.4-1.06,0-.438.373-.8,1.046-.8a.971.971,0,0,1,1.083.876h-.728a.339.339,0,0,0-.378-.29c-.184,0-.286.074-.286.2,0,.41,1.391.12,1.405,1.078C653.956,646.939,653.56,647.276,652.915,647.276Z" transform="translate(-603.195 -643.396)" fill="#3899b7"/>
    <path id="Trazado_274" data-name="Trazado 274" d="M680.779,639.093a.944.944,0,0,1,.792.392v-1.193h.788v3.41h-.788v-.369a.889.889,0,0,1-.792.406,1.338,1.338,0,0,1,0-2.645Zm.23.687a.573.573,0,0,0-.562.631.581.581,0,0,0,.562.64.641.641,0,0,0,0-1.272Z" transform="translate(-627.58 -637.858)" fill="#3899b7"/>
    <path id="Trazado_275" data-name="Trazado 275" d="M705.689,647.276a1.323,1.323,0,0,1,0-2.645,1.212,1.212,0,0,1,1.281,1.281,2,2,0,0,1-.014.23h-1.783a.477.477,0,0,0,.488.493.419.419,0,0,0,.41-.249h.839A1.2,1.2,0,0,1,705.689,647.276Zm-.511-1.571h.986a.444.444,0,0,0-.484-.442A.487.487,0,0,0,705.178,645.7Z" transform="translate(-649.195 -643.396)" fill="#3899b7"/>
    <path id="Trazado_276" data-name="Trazado 276" d="M269.514,683.114a1.5,1.5,0,0,1,1.534,1.134h-.866a.713.713,0,0,0-.677-.415.939.939,0,0,0,0,1.861.712.712,0,0,0,.677-.415h.866a1.5,1.5,0,0,1-1.534,1.129,1.647,1.647,0,0,1,0-3.294Z" transform="translate(-267.888 -677.013)" fill="#3899b7"/>
    <path id="Trazado_277" data-name="Trazado 277" d="M296.774,691.006a1.323,1.323,0,0,1,0-2.645,1.212,1.212,0,0,1,1.281,1.281,2.016,2.016,0,0,1-.014.23h-1.783a.477.477,0,0,0,.488.493.419.419,0,0,0,.41-.249H298A1.2,1.2,0,0,1,296.774,691.006Zm-.512-1.571h.986a.445.445,0,0,0-.484-.442A.488.488,0,0,0,296.263,689.435Z" transform="translate(-291.987 -681.596)" fill="#3899b7"/>
    <path id="Trazado_278" data-name="Trazado 278" d="M320.936,689.637a.5.5,0,1,0-.986,0v1.4h-.788v-2.571h.788v.341a.943.943,0,0,1,.779-.369.973.973,0,0,1,.991,1.1v1.5h-.783Z" transform="translate(-312.678 -681.661)" fill="#3899b7"/>
    <path id="Trazado_279" data-name="Trazado 279" d="M342.543,684.978h-.313v-.654h.313V683.7h.788v.627h.516v.654h-.516v1.032c0,.152.065.217.24.217h.281v.668h-.4a.794.794,0,0,1-.908-.894Z" transform="translate(-332.83 -677.522)" fill="#3899b7"/>
    <path id="Trazado_280" data-name="Trazado 280" d="M359.307,691.034h-.788v-2.571h.788v.429a.958.958,0,0,1,.806-.456v.834H359.9c-.373,0-.59.129-.59.571Z" transform="translate(-347.059 -681.661)" fill="#3899b7"/>
    <path id="Trazado_281" data-name="Trazado 281" d="M374.2,691.006a1.323,1.323,0,1,1,1.345-1.322A1.276,1.276,0,0,1,374.2,691.006Zm0-.682a.563.563,0,0,0,.544-.64c0-.438-.258-.64-.534-.64s-.535.2-.535.64S373.918,690.324,374.2,690.324Z" transform="translate(-359.601 -681.596)" fill="#3899b7"/>
    <path id="Trazado_282" data-name="Trazado 282" d="M397.224,688.361a.9.9,0,0,1,.793.4V688.4h.788v2.571h-.788V690.6a.909.909,0,0,1-.8.4,1.339,1.339,0,0,1,0-2.645Zm.23.687a.572.572,0,0,0-.562.631.581.581,0,0,0,.562.641.641.641,0,0,0,0-1.272Z" transform="translate(-379.88 -681.596)" fill="#3899b7"/>
    <path id="Trazado_283" data-name="Trazado 283" d="M425.617,689.637a.494.494,0,1,0-.986,0v1.4h-.783v-1.4a.494.494,0,1,0-.986,0v1.4h-.788v-2.571h.788v.322a.907.907,0,0,1,.751-.35.96.96,0,0,1,.875.479,1.034,1.034,0,0,1,.866-.479.992.992,0,0,1,1.046,1.1v1.5h-.783Z" transform="translate(-402.577 -681.661)" fill="#3899b7"/>
    <path id="Trazado_284" data-name="Trazado 284" d="M460.726,682.476a1.323,1.323,0,0,1,0-2.645,1.212,1.212,0,0,1,1.281,1.281,2.021,2.021,0,0,1-.014.23H460.21a.477.477,0,0,0,.488.493.419.419,0,0,0,.41-.249h.838A1.2,1.2,0,0,1,460.726,682.476Zm.53-3.88v.613l-1.111.465v-.544Zm-1.041,2.308h.986a.445.445,0,0,0-.484-.442A.488.488,0,0,0,460.215,680.9Z" transform="translate(-435.207 -673.066)" fill="#3899b7"/>
    <path id="Trazado_285" data-name="Trazado 285" d="M483.9,691.034h-.788v-2.571h.788v.429a.958.958,0,0,1,.806-.456v.834h-.216c-.373,0-.59.129-.59.571Z" transform="translate(-455.899 -681.661)" fill="#3899b7"/>
    <path id="Trazado_286" data-name="Trazado 286" d="M498.128,680.227a.47.47,0,1,1,.47.424A.436.436,0,0,1,498.128,680.227Zm.074.691h.788v2.571H498.2Z" transform="translate(-469.014 -674.117)" fill="#3899b7"/>
    <path id="Trazado_287" data-name="Trazado 287" d="M509.513,688.361a1.178,1.178,0,0,1,1.235.968h-.838a.406.406,0,0,0-.41-.295c-.281,0-.475.221-.475.65s.194.65.475.65a.4.4,0,0,0,.41-.295h.838a1.194,1.194,0,0,1-1.235.968,1.323,1.323,0,0,1,0-2.645Z" transform="translate(-477.833 -681.596)" fill="#3899b7"/>
    <path id="Trazado_288" data-name="Trazado 288" d="M531.4,688.361a.9.9,0,0,1,.793.4V688.4h.788v2.571H532.2V690.6a.909.909,0,0,1-.8.4,1.339,1.339,0,0,1,0-2.645Zm.231.687a.573.573,0,0,0-.562.631.581.581,0,0,0,.562.641.641.641,0,0,0,0-1.272Z" transform="translate(-497.092 -681.596)" fill="#3899b7"/>
    <path id="Trazado_289" data-name="Trazado 289" d="M563.746,688.653h.853l-1.613,3.792h-.848l.59-1.309-1.046-2.483h.88l.594,1.608Z" transform="translate(-524.532 -681.852)" fill="#3899b7"/>
    <path id="Trazado_290" data-name="Trazado 290" d="M594.735,683.406h.931l.908,2.239.9-2.239h.926v3.234h-.788V684.7l-.723,1.94h-.636l-.728-1.944v1.944h-.788Z" transform="translate(-553.406 -677.268)" fill="#3899b7"/>
    <path id="Trazado_291" data-name="Trazado 291" d="M628.249,682.476a1.323,1.323,0,0,1,0-2.645,1.212,1.212,0,0,1,1.281,1.281,2.021,2.021,0,0,1-.014.23h-1.783a.476.476,0,0,0,.488.493.419.419,0,0,0,.41-.249h.839A1.2,1.2,0,0,1,628.249,682.476Zm.53-3.88v.613l-1.11.465v-.544Zm-1.041,2.308h.986a.445.445,0,0,0-.484-.442A.487.487,0,0,0,627.738,680.9Z" transform="translate(-581.547 -673.066)" fill="#3899b7"/>
    <path id="Trazado_292" data-name="Trazado 292" d="M649.851,690.51l-.415.714h-.852l.848-1.313-.871-1.258h.885l.493.71.415-.71h.852l-.862,1.295.885,1.276h-.885Z" transform="translate(-600.425 -681.852)" fill="#3899b7"/>
    <path id="Trazado_293" data-name="Trazado 293" d="M671.481,680.227a.47.47,0,1,1,.47.424A.436.436,0,0,1,671.481,680.227Zm.074.691h.788v2.571h-.788Z" transform="translate(-620.447 -674.117)" fill="#3899b7"/>
    <path id="Trazado_294" data-name="Trazado 294" d="M682.867,688.361a1.178,1.178,0,0,1,1.235.968h-.839a.406.406,0,0,0-.41-.295c-.281,0-.475.221-.475.65s.193.65.475.65a.4.4,0,0,0,.41-.295h.839a1.194,1.194,0,0,1-1.235.968,1.323,1.323,0,0,1,0-2.645Z" transform="translate(-629.267 -681.596)" fill="#3899b7"/>
    <path id="Trazado_295" data-name="Trazado 295" d="M704.951,691.006a1.323,1.323,0,1,1,1.345-1.322A1.276,1.276,0,0,1,704.951,691.006Zm0-.682a.563.563,0,0,0,.544-.64c0-.438-.258-.64-.535-.64s-.534.2-.534.64S704.665,690.324,704.951,690.324Z" transform="translate(-648.526 -681.596)" fill="#3899b7"/>
  </g>
</svg>
