<svg id="Grupo_75" data-name="Grupo 75" xmlns="http://www.w3.org/2000/svg" xmlns:xlink="http://www.w3.org/1999/xlink" width="99.594" height="82.742" viewBox="0 0 99.594 82.742">
  <defs>
    <linearGradient id="linear-gradient" x1="0.5" y1="1" x2="0.5" gradientUnits="objectBoundingBox">
      <stop offset="0" stop-color="#194d58" stop-opacity="0.6"/>
      <stop offset="0.353" stop-color="#0d6576" stop-opacity="0.322"/>
      <stop offset="0.742" stop-color="#037a90" stop-opacity="0.086"/>
      <stop offset="1" stop-color="#00829a" stop-opacity="0"/>
    </linearGradient>
    <linearGradient id="linear-gradient-2" x1="-22.185" y1="-23.683" x2="-22.185" y2="-24.683" gradientUnits="objectBoundingBox">
      <stop offset="0.406" stop-color="#194d58" stop-opacity="0.6"/>
      <stop offset="1" stop-color="#00829a" stop-opacity="0"/>
    </linearGradient>
    <linearGradient id="linear-gradient-3" y1="0.5" x2="1" y2="0.5" gradientUnits="objectBoundingBox">
      <stop offset="0" stop-color="#194d58" stop-opacity="0.6"/>
      <stop offset="0.577" stop-color="#096e81" stop-opacity="0.224"/>
      <stop offset="1" stop-color="#00829a" stop-opacity="0"/>
    </linearGradient>
    <linearGradient id="linear-gradient-4" x1="1" y1="0.5" x2="0" y2="0.5" gradientUnits="objectBoundingBox">
      <stop offset="0" stop-color="#194d58" stop-opacity="0.6"/>
      <stop offset="0.122" stop-color="#155461" stop-opacity="0.51"/>
      <stop offset="0.688" stop-color="#05758a" stop-opacity="0.141"/>
      <stop offset="1" stop-color="#00829a" stop-opacity="0"/>
    </linearGradient>
    <linearGradient id="linear-gradient-5" x1="0.5" y1="1" x2="0.5" gradientUnits="objectBoundingBox">
      <stop offset="0" stop-color="#00829a" stop-opacity="0"/>
      <stop offset="1" stop-color="#194d58" stop-opacity="0.6"/>
    </linearGradient>
    <linearGradient id="linear-gradient-6" x1="0.5" y1="1" x2="0.5" gradientUnits="objectBoundingBox">
      <stop offset="0" stop-color="#194d58" stop-opacity="0.6"/>
      <stop offset="1" stop-color="#00829a" stop-opacity="0"/>
    </linearGradient>
    <linearGradient id="linear-gradient-7" x1="0.5" y1="1" x2="0.5" gradientUnits="objectBoundingBox">
      <stop offset="0" stop-color="#194d58" stop-opacity="0.6"/>
      <stop offset="0.182" stop-color="#0d6475" stop-opacity="0.329"/>
      <stop offset="0.395" stop-color="#037a90" stop-opacity="0.09"/>
      <stop offset="0.533" stop-color="#00829a" stop-opacity="0"/>
      <stop offset="0.72" stop-color="#087185" stop-opacity="0.192"/>
      <stop offset="1" stop-color="#1a525e" stop-opacity="0.553"/>
    </linearGradient>
    <linearGradient id="linear-gradient-8" x1="0" y1="0.5" x2="1" y2="0.5" xlink:href="#linear-gradient-7"/>
    <linearGradient id="linear-gradient-10" y1="0.5" x2="1" y2="0.5" gradientUnits="objectBoundingBox">
      <stop offset="0" stop-color="#dd4519" stop-opacity="0"/>
      <stop offset="0.384" stop-color="#b83a13" stop-opacity="0.204"/>
      <stop offset="1" stop-color="#712608" stop-opacity="0.6"/>
    </linearGradient>
    <linearGradient id="linear-gradient-11" y1="0.5" x2="1" y2="0.5" gradientUnits="objectBoundingBox">
      <stop offset="0" stop-color="#712608" stop-opacity="0.6"/>
      <stop offset="0.616" stop-color="#b83a13" stop-opacity="0.204"/>
      <stop offset="1" stop-color="#dd4519" stop-opacity="0"/>
    </linearGradient>
    <linearGradient id="linear-gradient-12" x1="0.5" y1="1" x2="0.5" gradientUnits="objectBoundingBox">
      <stop offset="0" stop-color="#712608" stop-opacity="0.6"/>
      <stop offset="0.203" stop-color="#a53510" stop-opacity="0.306"/>
      <stop offset="0.397" stop-color="#ce4016" stop-opacity="0.082"/>
      <stop offset="0.514" stop-color="#dd4519" stop-opacity="0"/>
      <stop offset="0.626" stop-color="#cd4016" stop-opacity="0.094"/>
      <stop offset="0.824" stop-color="#a43410" stop-opacity="0.337"/>
      <stop offset="1" stop-color="#79280a" stop-opacity="0.6"/>
    </linearGradient>
    <linearGradient id="linear-gradient-13" x1="0.5" y1="1" x2="0.5" y2="0" xlink:href="#linear-gradient-10"/>
    <linearGradient id="linear-gradient-14" x1="0.5" y1="1" x2="0.5" y2="0" xlink:href="#linear-gradient-11"/>
  </defs>
  <g id="Grupo_54" data-name="Grupo 54" transform="translate(37.815 38.952)">
    <path id="Trazado_296" data-name="Trazado 296" d="M243.438,442.377l7.541,3.184v-5.237h-7.541Z" transform="translate(-243.438 -422.074)" fill="#e45f13"/>
    <rect id="Rectángulo_59" data-name="Rectángulo 59" width="7.541" height="10.708" transform="translate(0)" fill="#e45f13"/>
  </g>
  <path id="Trazado_297" data-name="Trazado 297" d="M250.979,316.982l-7.541,3.277v4.924h7.541Z" transform="translate(-205.623 -293.773)" fill="#e45f13"/>
  <g id="Grupo_55" data-name="Grupo 55" transform="translate(46.564 21.95)">
    <rect id="Rectángulo_60" data-name="Rectángulo 60" width="7.511" height="18.262" transform="translate(0)" fill="#007097"/>
    <rect id="Rectángulo_61" data-name="Rectángulo 61" width="7.511" height="15.048" transform="translate(0 26.121)" fill="#007097"/>
  </g>
  <g id="Grupo_57" data-name="Grupo 57" transform="translate(33.093 49.66)">
    <g id="Grupo_56" data-name="Grupo 56" transform="translate(20.982 0)">
      <path id="Trazado_298" data-name="Trazado 298" d="M314.76,412.958H302.435V420.5h9.518Z" transform="translate(-302.435 -412.958)" fill="#007097"/>
    </g>
    <rect id="Rectángulo_62" data-name="Rectángulo 62" width="13.471" height="7.542" transform="translate(0 0)" fill="#007097"/>
  </g>
  <g id="Grupo_59" data-name="Grupo 59" transform="translate(55.516 23.436)">
    <path id="Trazado_299" data-name="Trazado 299" d="M307.665,445.311l6.917-2.9v-2.092h-6.917Z" transform="translate(-307.665 -406.558)" fill="#007097"/>
    <g id="Grupo_58" data-name="Grupo 58" transform="translate(0)">
      <path id="Trazado_300" data-name="Trazado 300" d="M314.582,320.715l-6.917-2.911v7.974h6.917Z" transform="translate(-307.665 -317.804)" fill="#007097"/>
      <rect id="Rectángulo_63" data-name="Rectángulo 63" width="6.917" height="10.708" transform="translate(0 15.516)" fill="#007097"/>
    </g>
  </g>
  <g id="Grupo_60" data-name="Grupo 60" transform="translate(31.642 31.41)">
    <path id="Trazado_301" data-name="Trazado 301" d="M223.846,346.739l-2.808,7.542h14.922v-7.542Z" transform="translate(-221.039 -346.739)" fill="#e02f12"/>
    <path id="Trazado_302" data-name="Trazado 302" d="M311.705,346.739h-9.27v7.542H314.6Z" transform="translate(-280.002 -346.739)" fill="#e02f12"/>
  </g>
  <g id="Grupo_61" data-name="Grupo 61" transform="translate(45.357 40.212)">
    <rect id="Rectángulo_64" data-name="Rectángulo 64" width="7.245" height="7.883" transform="translate(17.076 0)" fill="#007097"/>
    <rect id="Rectángulo_65" data-name="Rectángulo 65" width="10.159" height="7.883" transform="translate(0 0)" fill="#007097"/>
  </g>
  <rect id="Rectángulo_66" data-name="Rectángulo 66" width="6.917" height="10.708" transform="translate(55.516 38.952)" fill="#00829a"/>
  <g id="Grupo_71" data-name="Grupo 71" transform="translate(31.609 21.764)">
    <g id="Grupo_62" data-name="Grupo 62" transform="translate(14.922)">
      <rect id="Rectángulo_67" data-name="Rectángulo 67" width="7.511" height="18.262" fill="url(#linear-gradient)" style="mix-blend-mode: multiply;isolation: isolate"/>
      <rect id="Rectángulo_68" data-name="Rectángulo 68" width="7.511" height="15.048" transform="translate(0 26.12)" fill="url(#linear-gradient-2)" style="mix-blend-mode: multiply;isolation: isolate"/>
    </g>
    <g id="Grupo_63" data-name="Grupo 63" transform="translate(22.432 27.71)" style="mix-blend-mode: multiply;isolation: isolate">
      <path id="Trazado_303" data-name="Trazado 303" d="M314.639,412.282H302.313v7.542h9.518Z" transform="translate(-302.313 -412.282)" fill="url(#linear-gradient-3)"/>
    </g>
    <rect id="Rectángulo_69" data-name="Rectángulo 69" width="13.471" height="7.542" transform="translate(1.451 27.71)" fill="url(#linear-gradient-4)" style="mix-blend-mode: multiply;isolation: isolate"/>
    <g id="Grupo_65" data-name="Grupo 65" transform="translate(23.874 1.486)">
      <path id="Trazado_304" data-name="Trazado 304" d="M307.543,444.635l6.917-2.9v-2.092h-6.917Z" transform="translate(-307.543 -405.881)" fill="url(#linear-gradient-5)" style="mix-blend-mode: multiply;isolation: isolate"/>
      <g id="Grupo_64" data-name="Grupo 64">
        <path id="Trazado_305" data-name="Trazado 305" d="M314.46,320.039l-6.917-2.911V325.1h6.917Z" transform="translate(-307.543 -317.128)" fill="url(#linear-gradient-6)" style="mix-blend-mode: multiply;isolation: isolate"/>
        <rect id="Rectángulo_70" data-name="Rectángulo 70" width="6.917" height="10.708" transform="translate(0 15.516)" fill="url(#linear-gradient-7)" style="mix-blend-mode: multiply;isolation: isolate"/>
      </g>
    </g>
    <g id="Grupo_66" data-name="Grupo 66" transform="translate(13.715 18.262)">
      <rect id="Rectángulo_71" data-name="Rectángulo 71" width="7.245" height="7.883" transform="translate(17.076)" fill="url(#linear-gradient-8)" style="mix-blend-mode: multiply;isolation: isolate"/>
      <rect id="Rectángulo_72" data-name="Rectángulo 72" width="10.159" height="7.883" fill="url(#linear-gradient-8)" style="mix-blend-mode: multiply;isolation: isolate"/>
    </g>
    <g id="Grupo_67" data-name="Grupo 67" transform="translate(0 9.46)">
      <path id="Trazado_306" data-name="Trazado 306" d="M223.725,346.062l-2.808,7.542h14.922v-7.542Z" transform="translate(-220.917 -346.062)" fill="url(#linear-gradient-10)"/>
      <path id="Trazado_307" data-name="Trazado 307" d="M311.584,346.062h-9.27V353.6h12.16Z" transform="translate(-279.881 -346.062)" fill="url(#linear-gradient-11)"/>
    </g>
    <g id="Grupo_70" data-name="Grupo 70" transform="translate(6.173 1.259)">
      <g id="Grupo_68" data-name="Grupo 68" transform="translate(0 15.742)">
        <path id="Trazado_308" data-name="Trazado 308" d="M243.316,441.7l7.541,3.184v-5.237h-7.541Z" transform="translate(-243.316 -421.397)" fill="#e95a11"/>
        <rect id="Rectángulo_73" data-name="Rectángulo 73" width="7.541" height="10.708" fill="url(#linear-gradient-12)"/>
      </g>
      <g id="Grupo_69" data-name="Grupo 69">
        <path id="Trazado_309" data-name="Trazado 309" d="M243.316,441.7l7.541,3.184v-5.237h-7.541Z" transform="translate(-243.316 -405.655)" fill="url(#linear-gradient-13)"/>
        <path id="Trazado_310" data-name="Trazado 310" d="M250.858,316.306l-7.541,3.277v4.924h7.541Z" transform="translate(-243.316 -316.306)" fill="url(#linear-gradient-14)"/>
      </g>
    </g>
  </g>
  <g id="Grupo_72" data-name="Grupo 72" transform="translate(5.343 0)">
    <path id="Trazado_311" data-name="Trazado 311" d="M132.359,322.119a13.143,13.143,0,0,0,9.662,3.956q5.955,0,5.955-3.5,0-1.832-3.29-2.707-2.333-.54-7.413-1.874a14.684,14.684,0,0,1-6.955-4q-2.79-2.873-2.79-8.829a12.858,12.858,0,0,1,2.29-7.746,13.752,13.752,0,0,1,6.039-4.664,21.8,21.8,0,0,1,8.287-1.541,19.76,19.76,0,0,1,5.164.708,24.963,24.963,0,0,1,5.081,2.166,23.261,23.261,0,0,1,4.331,3.081l-7.33,7.288a11.387,11.387,0,0,0-7-2.415q-4.54,0-4.54,2.541,0,2.291,3.374,3.207,3.706,1,7.455,1.874a14.362,14.362,0,0,1,6.872,3.831q2.79,2.833,2.79,8.913a12.868,12.868,0,0,1-2.415,7.829,14.425,14.425,0,0,1-6.455,4.956A21.3,21.3,0,0,1,143.1,336.9a33.456,33.456,0,0,1-6.538-.584,20.024,20.024,0,0,1-5.455-1.832,34.652,34.652,0,0,1-5.5-3.457Z" transform="translate(-125.612 -275.108)" fill="#007097"/>
    <path id="Trazado_312" data-name="Trazado 312" d="M273.021,243.335a9.583,9.583,0,0,0-3.38-3.437,9.28,9.28,0,0,0-4.733-1.24,8.977,8.977,0,0,0-4.676,1.24,10.029,10.029,0,0,0-3.437,3.437,9.275,9.275,0,0,0-1.239,4.732,9.444,9.444,0,0,0,1.3,4.789,9.548,9.548,0,0,0,3.38,3.437,9.369,9.369,0,0,0,9.409-.057,9.7,9.7,0,0,0,3.38-3.381,9.756,9.756,0,0,0,0-9.522Z" transform="translate(-219.744 -237.034)" fill="#007097"/>
    <path id="Trazado_313" data-name="Trazado 313" d="M337.338,252.439q0-7.655,2.634-11.77a15.479,15.479,0,0,1,7.408-6.009,30.377,30.377,0,0,1,11.359-1.893l.082,12.182q-4.98-.041-6.667,1.44-1.688,1.564-1.688,6.05h5.145l2.922,11.277h-8.066v30.866H337.338V263.716h-4.322l-2.963-11.277Z" transform="translate(-273.71 -232.767)" fill="#007097"/>
  </g>
  <g id="Grupo_73" data-name="Grupo 73" transform="translate(0 69.889)">
    <path id="Trazado_314" data-name="Trazado 314" d="M109.255,487.694a.955.955,0,0,0-.2-.173,1.86,1.86,0,0,0-.289-.151,2.029,2.029,0,0,0-.349-.109,1.824,1.824,0,0,0-.394-.042,1.237,1.237,0,0,0-.778.2.661.661,0,0,0-.246.545.607.607,0,0,0,.07.307.58.58,0,0,0,.221.208,1.691,1.691,0,0,0,.375.151q.224.064.531.134a5.542,5.542,0,0,1,.637.176,1.853,1.853,0,0,1,.487.247.986.986,0,0,1,.308.359,1.155,1.155,0,0,1,.106.519,1.184,1.184,0,0,1-.128.567,1.135,1.135,0,0,1-.349.4,1.508,1.508,0,0,1-.522.231,2.75,2.75,0,0,1-.653.073,3.017,3.017,0,0,1-1-.163,2.78,2.78,0,0,1-.855-.477l.276-.487a1.519,1.519,0,0,0,.266.218,2.174,2.174,0,0,0,.371.2,2.746,2.746,0,0,0,.448.141,2.278,2.278,0,0,0,.5.055,1.4,1.4,0,0,0,.756-.173.639.639,0,0,0,.182-.842.733.733,0,0,0-.253-.227,1.952,1.952,0,0,0-.413-.17q-.247-.074-.561-.15a5.548,5.548,0,0,1-.609-.179,1.66,1.66,0,0,1-.439-.23.875.875,0,0,1-.266-.327,1.082,1.082,0,0,1-.09-.461,1.3,1.3,0,0,1,.122-.577,1.218,1.218,0,0,1,.34-.423,1.484,1.484,0,0,1,.519-.259,2.36,2.36,0,0,1,.653-.087,2.29,2.29,0,0,1,1.492.519Z" transform="translate(-106.225 -486.612)" fill="#007097"/>
    <path id="Trazado_315" data-name="Trazado 315" d="M122.734,494.45a1.7,1.7,0,0,1-.691-.138,1.637,1.637,0,0,1-.538-.375,1.7,1.7,0,0,1-.349-.554,1.811,1.811,0,0,1-.125-.669,1.785,1.785,0,0,1,.125-.666,1.669,1.669,0,0,1,.893-.926,1.71,1.71,0,0,1,.692-.138,1.625,1.625,0,0,1,1.554,1.06,1.794,1.794,0,0,1,.119.644c0,.047,0,.09,0,.128a.774.774,0,0,1-.009.09h-2.774a1.3,1.3,0,0,0,.115.455,1.157,1.157,0,0,0,.6.583,1.044,1.044,0,0,0,.413.083,1.1,1.1,0,0,0,.3-.042,1.3,1.3,0,0,0,.276-.112.961.961,0,0,0,.228-.173.707.707,0,0,0,.15-.23l.487.134a1.244,1.244,0,0,1-.228.34,1.507,1.507,0,0,1-.333.266,1.716,1.716,0,0,1-.42.176A1.786,1.786,0,0,1,122.734,494.45Zm1.147-1.96a1.209,1.209,0,0,0-.119-.439,1.18,1.18,0,0,0-.25-.343,1.147,1.147,0,0,0-1.195-.221,1.1,1.1,0,0,0-.349.224,1.147,1.147,0,0,0-.243.343,1.249,1.249,0,0,0-.112.436Z" transform="translate(-116.95 -489.71)" fill="#007097"/>
    <path id="Trazado_316" data-name="Trazado 316" d="M136.235,494.45a1.2,1.2,0,0,1-.442-.08,1.1,1.1,0,0,1-.355-.221,1.035,1.035,0,0,1-.237-.33.981.981,0,0,1-.087-.413.866.866,0,0,1,.1-.419.954.954,0,0,1,.292-.324,1.5,1.5,0,0,1,.448-.211,1.99,1.99,0,0,1,.567-.077,2.8,2.8,0,0,1,.493.045,2.3,2.3,0,0,1,.442.122v-.269a.806.806,0,0,0-.884-.878,1.871,1.871,0,0,0-1.063.391l-.186-.365a2.313,2.313,0,0,1,1.3-.435,1.43,1.43,0,0,1,1.028.352,1.31,1.31,0,0,1,.368.993v1.364c0,.133.06.2.179.205v.487l-.147.019a1.134,1.134,0,0,1-.122.006.36.36,0,0,1-.266-.1.41.41,0,0,1-.119-.24l-.013-.237a1.451,1.451,0,0,1-.567.458A1.739,1.739,0,0,1,136.235,494.45Zm.147-.422a1.4,1.4,0,0,0,.56-.112.924.924,0,0,0,.394-.3.355.355,0,0,0,.121-.25v-.493a2.322,2.322,0,0,0-.852-.16,1.208,1.208,0,0,0-.689.179.543.543,0,0,0-.266.468.628.628,0,0,0,.055.262.62.62,0,0,0,.154.212.738.738,0,0,0,.234.141A.8.8,0,0,0,136.382,494.028Z" transform="translate(-127.152 -489.71)" fill="#007097"/>
    <path id="Trazado_317" data-name="Trazado 317" d="M150.293,491.442q-.051.026-.135.061c-.056.023-.118.047-.189.07a1.6,1.6,0,0,1-.231.058,1.443,1.443,0,0,1-.259.022.855.855,0,0,1-.532-.169.62.62,0,0,1-.224-.528v-2.248h-.455v-.442h.455V487.15h.564v1.115h.75v.442h-.75v2.075a.348.348,0,0,0,.122.269.409.409,0,0,0,.256.083.823.823,0,0,0,.3-.055,1.32,1.32,0,0,0,.189-.087Z" transform="translate(-136.682 -486.932)" fill="#007097"/>
    <path id="Trazado_318" data-name="Trazado 318" d="M158.962,491.442q-.051.026-.134.061c-.056.023-.118.047-.189.07a1.612,1.612,0,0,1-.23.058,1.452,1.452,0,0,1-.259.022.855.855,0,0,1-.532-.169.62.62,0,0,1-.224-.528v-2.248h-.455v-.442h.455V487.15h.564v1.115h.749v.442h-.749v2.075a.349.349,0,0,0,.122.269.41.41,0,0,0,.256.083.824.824,0,0,0,.3-.055,1.323,1.323,0,0,0,.189-.087Z" transform="translate(-142.962 -486.932)" fill="#007097"/>
    <path id="Trazado_319" data-name="Trazado 319" d="M166.723,486.36h.564v3.811a.408.408,0,0,0,.1.291.364.364,0,0,0,.279.106.748.748,0,0,0,.166-.022,1.3,1.3,0,0,0,.179-.055l.09.455a1.8,1.8,0,0,1-.333.1,1.758,1.758,0,0,1-.34.038.7.7,0,0,1-.516-.185.694.694,0,0,1-.188-.519Z" transform="translate(-150.05 -486.36)" fill="#007097"/>
    <path id="Trazado_320" data-name="Trazado 320" d="M174.7,494.45a1.7,1.7,0,0,1-.691-.138,1.64,1.64,0,0,1-.538-.375,1.7,1.7,0,0,1-.349-.554,1.811,1.811,0,0,1-.125-.669,1.785,1.785,0,0,1,.125-.666,1.667,1.667,0,0,1,.893-.926,1.71,1.71,0,0,1,.692-.138,1.625,1.625,0,0,1,1.553,1.06,1.794,1.794,0,0,1,.118.644c0,.047,0,.09,0,.128a.668.668,0,0,1-.009.09h-2.774a1.3,1.3,0,0,0,.115.455,1.157,1.157,0,0,0,.6.583,1.043,1.043,0,0,0,.413.083,1.1,1.1,0,0,0,.3-.042,1.285,1.285,0,0,0,.276-.112.951.951,0,0,0,.228-.173.7.7,0,0,0,.15-.23l.487.134a1.243,1.243,0,0,1-.227.34,1.515,1.515,0,0,1-.333.266,1.714,1.714,0,0,1-.419.176A1.787,1.787,0,0,1,174.7,494.45Zm1.147-1.96a1.2,1.2,0,0,0-.119-.439,1.18,1.18,0,0,0-.25-.343,1.146,1.146,0,0,0-1.195-.221,1.089,1.089,0,0,0-.349.224,1.143,1.143,0,0,0-.243.343,1.255,1.255,0,0,0-.112.436Z" transform="translate(-154.596 -489.71)" fill="#007097"/>
    <path id="Trazado_321" data-name="Trazado 321" d="M194.728,491.372v-4.548h.576v4.548Z" transform="translate(-170.337 -486.696)" fill="#007097"/>
    <path id="Trazado_322" data-name="Trazado 322" d="M203.834,494.386h-.563v-1.87a1.44,1.44,0,0,0-.164-.782.556.556,0,0,0-.5-.243.948.948,0,0,0-.346.067,1.369,1.369,0,0,0-.327.182,1.265,1.265,0,0,0-.269.276,1.171,1.171,0,0,0-.173.352v2.018h-.564v-3.344h.513v.717a1.469,1.469,0,0,1,.573-.564,1.632,1.632,0,0,1,.817-.211.986.986,0,0,1,.48.106.812.812,0,0,1,.308.295,1.308,1.308,0,0,1,.163.445,3.006,3.006,0,0,1,.048.557Z" transform="translate(-174.832 -489.71)" fill="#007097"/>
    <path id="Trazado_323" data-name="Trazado 323" d="M215.973,491.442q-.051.026-.134.061c-.056.023-.118.047-.189.07a1.606,1.606,0,0,1-.231.058,1.444,1.444,0,0,1-.259.022.855.855,0,0,1-.532-.169.62.62,0,0,1-.224-.528v-2.248h-.455v-.442h.455V487.15h.564v1.115h.75v.442h-.75v2.075a.349.349,0,0,0,.122.269.409.409,0,0,0,.256.083.824.824,0,0,0,.3-.055,1.323,1.323,0,0,0,.189-.087Z" transform="translate(-184.261 -486.932)" fill="#007097"/>
    <path id="Trazado_324" data-name="Trazado 324" d="M224.415,494.45a1.7,1.7,0,0,1-.692-.138,1.637,1.637,0,0,1-.538-.375,1.7,1.7,0,0,1-.349-.554,1.806,1.806,0,0,1-.125-.669,1.78,1.78,0,0,1,.125-.666,1.665,1.665,0,0,1,.893-.926,1.708,1.708,0,0,1,.692-.138,1.626,1.626,0,0,1,1.553,1.06,1.789,1.789,0,0,1,.118.644c0,.047,0,.09,0,.128a.712.712,0,0,1-.01.09h-2.774a1.3,1.3,0,0,0,.115.455,1.166,1.166,0,0,0,.25.352,1.152,1.152,0,0,0,.349.231,1.044,1.044,0,0,0,.413.083,1.1,1.1,0,0,0,.3-.042,1.277,1.277,0,0,0,.275-.112.938.938,0,0,0,.227-.173.7.7,0,0,0,.151-.23l.486.134a1.229,1.229,0,0,1-.227.34,1.521,1.521,0,0,1-.333.266,1.716,1.716,0,0,1-.42.176A1.783,1.783,0,0,1,224.415,494.45Zm1.146-1.96a1.2,1.2,0,0,0-.119-.439,1.172,1.172,0,0,0-.25-.343,1.145,1.145,0,0,0-1.194-.221,1.089,1.089,0,0,0-.349.224,1.143,1.143,0,0,0-.244.343,1.261,1.261,0,0,0-.112.436Z" transform="translate(-190.608 -489.71)" fill="#007097"/>
    <path id="Trazado_325" data-name="Trazado 325" d="M239.515,491.62a1.449,1.449,0,0,0-.746.218,1.113,1.113,0,0,0-.458.57v2.063h-.563v-3.344h.525v.775a1.577,1.577,0,0,1,.454-.561,1.134,1.134,0,0,1,.6-.24h.109a.4.4,0,0,1,.076.006Z" transform="translate(-201.501 -489.794)" fill="#007097"/>
    <path id="Trazado_326" data-name="Trazado 326" d="M249.574,494.386h-.564v-1.87a1.441,1.441,0,0,0-.163-.782.557.557,0,0,0-.5-.243.944.944,0,0,0-.346.067,1.372,1.372,0,0,0-.327.182,1.266,1.266,0,0,0-.269.276,1.178,1.178,0,0,0-.173.352v2.018h-.564v-3.344h.513v.717a1.468,1.468,0,0,1,.573-.564,1.633,1.633,0,0,1,.817-.211.99.99,0,0,1,.48.106.82.82,0,0,1,.308.295,1.313,1.313,0,0,1,.163.445,3.005,3.005,0,0,1,.048.557Z" transform="translate(-207.965 -489.71)" fill="#007097"/>
    <path id="Trazado_327" data-name="Trazado 327" d="M261.041,494.45a1.2,1.2,0,0,1-.442-.08,1.1,1.1,0,0,1-.356-.221,1.039,1.039,0,0,1-.237-.33.981.981,0,0,1-.086-.413.865.865,0,0,1,.1-.419.95.95,0,0,1,.291-.324,1.5,1.5,0,0,1,.448-.211,1.988,1.988,0,0,1,.567-.077,2.8,2.8,0,0,1,.493.045,2.3,2.3,0,0,1,.442.122v-.269a.806.806,0,0,0-.884-.878,1.871,1.871,0,0,0-1.063.391l-.186-.365a2.312,2.312,0,0,1,1.3-.435,1.427,1.427,0,0,1,1.028.352,1.309,1.309,0,0,1,.368.993v1.364q0,.2.179.205v.487l-.147.019a1.138,1.138,0,0,1-.122.006.359.359,0,0,1-.266-.1.409.409,0,0,1-.119-.24l-.013-.237a1.451,1.451,0,0,1-.567.458A1.739,1.739,0,0,1,261.041,494.45Zm.147-.422a1.4,1.4,0,0,0,.561-.112.921.921,0,0,0,.394-.3.356.356,0,0,0,.122-.25v-.493a2.323,2.323,0,0,0-.852-.16,1.209,1.209,0,0,0-.689.179.543.543,0,0,0-.266.468.637.637,0,0,0,.054.262.629.629,0,0,0,.154.212.738.738,0,0,0,.234.141A.8.8,0,0,0,261.188,494.028Z" transform="translate(-217.562 -489.71)" fill="#007097"/>
    <path id="Trazado_328" data-name="Trazado 328" d="M275.1,491.442q-.051.026-.134.061t-.189.07a1.616,1.616,0,0,1-.231.058,1.446,1.446,0,0,1-.259.022.855.855,0,0,1-.532-.169.62.62,0,0,1-.224-.528v-2.248h-.455v-.442h.455V487.15h.564v1.115h.75v.442h-.75v2.075a.35.35,0,0,0,.122.269.408.408,0,0,0,.256.083.824.824,0,0,0,.3-.055,1.324,1.324,0,0,0,.189-.087Z" transform="translate(-227.092 -486.932)" fill="#007097"/>
    <path id="Trazado_329" data-name="Trazado 329" d="M282.811,487.065v-.7h.564v.7Zm0,3.971v-3.344h.564v3.344Z" transform="translate(-234.145 -486.36)" fill="#007097"/>
    <path id="Trazado_330" data-name="Trazado 330" d="M289.517,494.45a1.64,1.64,0,0,1-1.22-.519,1.694,1.694,0,0,1-.343-.551,1.811,1.811,0,0,1-.122-.66,1.786,1.786,0,0,1,.125-.666,1.746,1.746,0,0,1,.346-.551,1.655,1.655,0,0,1,.531-.378,1.633,1.633,0,0,1,.682-.141,1.654,1.654,0,0,1,1.22.519,1.755,1.755,0,0,1,.346.551,1.842,1.842,0,0,1,0,1.326,1.666,1.666,0,0,1-.346.551,1.688,1.688,0,0,1-.535.378A1.647,1.647,0,0,1,289.517,494.45Zm-1.108-1.723a1.342,1.342,0,0,0,.086.487,1.248,1.248,0,0,0,.237.391,1.118,1.118,0,0,0,.353.263,1.022,1.022,0,0,0,.865,0,1.135,1.135,0,0,0,.355-.266,1.248,1.248,0,0,0,.24-.4,1.367,1.367,0,0,0,.086-.49,1.352,1.352,0,0,0-.086-.484,1.247,1.247,0,0,0-.24-.4,1.13,1.13,0,0,0-.355-.266.989.989,0,0,0-.432-.1.965.965,0,0,0-.432.1,1.141,1.141,0,0,0-.353.269,1.28,1.28,0,0,0-.237.4A1.369,1.369,0,0,0,288.409,492.727Z" transform="translate(-237.783 -489.71)" fill="#007097"/>
    <path id="Trazado_331" data-name="Trazado 331" d="M305.957,494.386h-.564v-1.87a1.443,1.443,0,0,0-.163-.782.557.557,0,0,0-.5-.243.946.946,0,0,0-.346.067,1.367,1.367,0,0,0-.326.182,1.255,1.255,0,0,0-.27.276,1.158,1.158,0,0,0-.173.352v2.018h-.564v-3.344h.513v.717a1.473,1.473,0,0,1,.573-.564,1.633,1.633,0,0,1,.817-.211.989.989,0,0,1,.48.106.813.813,0,0,1,.307.295,1.3,1.3,0,0,1,.163.445,3.005,3.005,0,0,1,.048.557Z" transform="translate(-248.81 -489.71)" fill="#007097"/>
    <path id="Trazado_332" data-name="Trazado 332" d="M317.426,494.45a1.2,1.2,0,0,1-.442-.08,1.094,1.094,0,0,1-.356-.221,1.022,1.022,0,0,1-.237-.33.973.973,0,0,1-.086-.413.862.862,0,0,1,.1-.419.949.949,0,0,1,.292-.324,1.5,1.5,0,0,1,.448-.211,1.984,1.984,0,0,1,.567-.077,2.805,2.805,0,0,1,.493.045,2.3,2.3,0,0,1,.442.122v-.269a.806.806,0,0,0-.884-.878,1.868,1.868,0,0,0-1.063.391l-.186-.365a2.313,2.313,0,0,1,1.3-.435,1.429,1.429,0,0,1,1.028.352,1.308,1.308,0,0,1,.368.993v1.364c0,.133.06.2.179.205v.487l-.147.019a1.137,1.137,0,0,1-.122.006.36.36,0,0,1-.266-.1.412.412,0,0,1-.118-.24l-.013-.237a1.449,1.449,0,0,1-.567.458A1.739,1.739,0,0,1,317.426,494.45Zm.147-.422a1.4,1.4,0,0,0,.56-.112.917.917,0,0,0,.394-.3.356.356,0,0,0,.122-.25v-.493a2.322,2.322,0,0,0-.852-.16,1.209,1.209,0,0,0-.689.179.542.542,0,0,0-.265.468.636.636,0,0,0,.054.262.626.626,0,0,0,.154.212.739.739,0,0,0,.234.141A.8.8,0,0,0,317.573,494.028Z" transform="translate(-258.408 -489.71)" fill="#007097"/>
    <path id="Trazado_333" data-name="Trazado 333" d="M330.666,486.36h.564v3.811a.409.409,0,0,0,.1.291.364.364,0,0,0,.278.106.748.748,0,0,0,.167-.022,1.289,1.289,0,0,0,.18-.055l.09.455a1.8,1.8,0,0,1-.334.1,1.751,1.751,0,0,1-.34.038.7.7,0,0,1-.516-.185.7.7,0,0,1-.189-.519Z" transform="translate(-268.811 -486.36)" fill="#007097"/>
    <path id="Trazado_334" data-name="Trazado 334" d="M343.752,491.372v-4.548h3v.512h-2.427v1.518h2.043v.48h-2.043v2.037Z" transform="translate(-278.291 -486.696)" fill="#007097"/>
    <path id="Trazado_335" data-name="Trazado 335" d="M357.589,494.45a1.638,1.638,0,0,1-1.22-.519,1.7,1.7,0,0,1-.343-.551,1.811,1.811,0,0,1-.122-.66,1.792,1.792,0,0,1,.125-.666,1.766,1.766,0,0,1,.346-.551,1.652,1.652,0,0,1,.532-.378,1.631,1.631,0,0,1,.682-.141,1.653,1.653,0,0,1,1.22.519,1.741,1.741,0,0,1,.346.551,1.781,1.781,0,0,1,.125.666,1.815,1.815,0,0,1-.122.66,1.664,1.664,0,0,1-.346.551,1.688,1.688,0,0,1-.535.378A1.648,1.648,0,0,1,357.589,494.45Zm-1.108-1.723a1.354,1.354,0,0,0,.086.487,1.26,1.26,0,0,0,.237.391,1.124,1.124,0,0,0,.352.263,1.023,1.023,0,0,0,.865,0,1.129,1.129,0,0,0,.355-.266,1.234,1.234,0,0,0,.241-.4,1.362,1.362,0,0,0,.087-.49,1.347,1.347,0,0,0-.087-.484,1.233,1.233,0,0,0-.241-.4,1.124,1.124,0,0,0-.355-.266.993.993,0,0,0-.433-.1.967.967,0,0,0-.432.1,1.148,1.148,0,0,0-.352.269,1.291,1.291,0,0,0-.237.4A1.381,1.381,0,0,0,356.481,492.727Z" transform="translate(-287.094 -489.71)" fill="#007097"/>
    <path id="Trazado_336" data-name="Trazado 336" d="M372.077,494.6a.939.939,0,0,1-.8-.352,1.716,1.716,0,0,1-.269-1.051v-2h.564v1.9q0,1.025.711,1.025a1.085,1.085,0,0,0,.65-.221,1.3,1.3,0,0,0,.452-.605v-2.095h.564v2.652c0,.133.06.2.179.205v.487c-.064.009-.114.014-.15.016s-.072,0-.106,0a.4.4,0,0,1-.279-.1.339.339,0,0,1-.119-.247l-.012-.391a1.552,1.552,0,0,1-.59.58A1.625,1.625,0,0,1,372.077,494.6Z" transform="translate(-298.039 -489.862)" fill="#007097"/>
    <path id="Trazado_337" data-name="Trazado 337" d="M388.487,494.386h-.564v-1.87a1.443,1.443,0,0,0-.163-.782.557.557,0,0,0-.5-.243.945.945,0,0,0-.346.067,1.366,1.366,0,0,0-.327.182,1.266,1.266,0,0,0-.269.276,1.152,1.152,0,0,0-.172.352v2.018h-.564v-3.344h.513v.717a1.47,1.47,0,0,1,.572-.564,1.635,1.635,0,0,1,.817-.211.987.987,0,0,1,.48.106.816.816,0,0,1,.308.295,1.3,1.3,0,0,1,.163.445,2.979,2.979,0,0,1,.048.557Z" transform="translate(-308.595 -489.71)" fill="#007097"/>
    <path id="Trazado_338" data-name="Trazado 338" d="M400.59,491.1a1.462,1.462,0,0,1-.64-.141,1.584,1.584,0,0,1-.507-.378,1.744,1.744,0,0,1-.33-.551,1.856,1.856,0,0,1-.118-.66,2,2,0,0,1,.112-.669,1.762,1.762,0,0,1,.314-.554,1.5,1.5,0,0,1,.481-.375,1.364,1.364,0,0,1,.612-.138,1.268,1.268,0,0,1,.72.211,1.669,1.669,0,0,1,.5.512v-2h.564v3.984q0,.2.179.205v.487l-.144.019a.929.929,0,0,1-.105.006.423.423,0,0,1-.292-.112.341.341,0,0,1-.125-.26v-.282a1.44,1.44,0,0,1-1.224.691Zm.135-.487a.945.945,0,0,0,.317-.058,1.232,1.232,0,0,0,.307-.16,1.171,1.171,0,0,0,.25-.24.73.73,0,0,0,.138-.292V488.9a1.083,1.083,0,0,0-.173-.3,1.373,1.373,0,0,0-.26-.25,1.276,1.276,0,0,0-.308-.166.915.915,0,0,0-.323-.061.958.958,0,0,0-.452.106,1.1,1.1,0,0,0-.346.282,1.278,1.278,0,0,0-.221.4,1.439,1.439,0,0,0-.077.464,1.288,1.288,0,0,0,.09.477,1.246,1.246,0,0,0,.243.394,1.178,1.178,0,0,0,.362.266A1.038,1.038,0,0,0,400.725,490.613Z" transform="translate(-318.309 -486.36)" fill="#007097"/>
    <path id="Trazado_339" data-name="Trazado 339" d="M415.063,494.45a1.2,1.2,0,0,1-.442-.08,1.087,1.087,0,0,1-.356-.221,1.023,1.023,0,0,1-.237-.33.98.98,0,0,1-.086-.413.865.865,0,0,1,.1-.419.951.951,0,0,1,.292-.324,1.5,1.5,0,0,1,.449-.211,1.981,1.981,0,0,1,.567-.077,2.8,2.8,0,0,1,.493.045,2.3,2.3,0,0,1,.442.122v-.269a.806.806,0,0,0-.884-.878,1.869,1.869,0,0,0-1.063.391l-.186-.365a2.313,2.313,0,0,1,1.3-.435,1.429,1.429,0,0,1,1.028.352,1.308,1.308,0,0,1,.368.993v1.364c0,.133.06.2.179.205v.487l-.147.019a1.137,1.137,0,0,1-.122.006.36.36,0,0,1-.266-.1.412.412,0,0,1-.118-.24l-.013-.237a1.449,1.449,0,0,1-.567.458A1.742,1.742,0,0,1,415.063,494.45Zm.147-.422a1.4,1.4,0,0,0,.56-.112.918.918,0,0,0,.394-.3.356.356,0,0,0,.122-.25v-.493a2.323,2.323,0,0,0-.852-.16,1.208,1.208,0,0,0-.689.179.542.542,0,0,0-.265.468.637.637,0,0,0,.054.262.627.627,0,0,0,.154.212.734.734,0,0,0,.234.141A.8.8,0,0,0,415.21,494.028Z" transform="translate(-329.137 -489.71)" fill="#007097"/>
    <path id="Trazado_340" data-name="Trazado 340" d="M429.117,491.442c-.033.017-.079.037-.134.061s-.118.047-.189.07a1.631,1.631,0,0,1-.23.058,1.446,1.446,0,0,1-.259.022.853.853,0,0,1-.531-.169.62.62,0,0,1-.225-.528v-2.248h-.455v-.442h.455V487.15h.564v1.115h.749v.442h-.749v2.075a.35.35,0,0,0,.122.269.409.409,0,0,0,.256.083.822.822,0,0,0,.3-.055,1.306,1.306,0,0,0,.189-.087Z" transform="translate(-338.663 -486.932)" fill="#007097"/>
    <path id="Trazado_341" data-name="Trazado 341" d="M436.832,487.065v-.7h.564v.7Zm0,3.971v-3.344h.564v3.344Z" transform="translate(-345.718 -486.36)" fill="#007097"/>
    <path id="Trazado_342" data-name="Trazado 342" d="M443.537,494.45a1.639,1.639,0,0,1-1.22-.519,1.69,1.69,0,0,1-.343-.551,1.811,1.811,0,0,1-.122-.66,1.792,1.792,0,0,1,.125-.666,1.77,1.77,0,0,1,.345-.551,1.651,1.651,0,0,1,.532-.378,1.628,1.628,0,0,1,.682-.141,1.653,1.653,0,0,1,1.22.519,1.734,1.734,0,0,1,.345.551,1.77,1.77,0,0,1,.125.666,1.811,1.811,0,0,1-.122.66,1.663,1.663,0,0,1-.345.551,1.691,1.691,0,0,1-.535.378A1.648,1.648,0,0,1,443.537,494.45Zm-1.108-1.723a1.347,1.347,0,0,0,.086.487,1.258,1.258,0,0,0,.237.391,1.13,1.13,0,0,0,.352.263,1.024,1.024,0,0,0,.865,0,1.129,1.129,0,0,0,.355-.266,1.239,1.239,0,0,0,.24-.4,1.361,1.361,0,0,0,.087-.49,1.346,1.346,0,0,0-.087-.484,1.237,1.237,0,0,0-.24-.4,1.124,1.124,0,0,0-.355-.266,1,1,0,0,0-.433-.1.968.968,0,0,0-.433.1,1.154,1.154,0,0,0-.352.269,1.289,1.289,0,0,0-.237.4A1.374,1.374,0,0,0,442.429,492.727Z" transform="translate(-349.355 -489.71)" fill="#007097"/>
    <path id="Trazado_343" data-name="Trazado 343" d="M459.977,494.386h-.563v-1.87a1.443,1.443,0,0,0-.163-.782.557.557,0,0,0-.5-.243.945.945,0,0,0-.346.067,1.365,1.365,0,0,0-.327.182,1.274,1.274,0,0,0-.27.276,1.171,1.171,0,0,0-.172.352v2.018h-.564v-3.344h.513v.717a1.47,1.47,0,0,1,.573-.564,1.633,1.633,0,0,1,.817-.211.988.988,0,0,1,.48.106.814.814,0,0,1,.308.295,1.291,1.291,0,0,1,.163.445,3.006,3.006,0,0,1,.048.557Z" transform="translate(-360.382 -489.71)" fill="#007097"/>
  </g>
  <g id="Grupo_74" data-name="Grupo 74" transform="translate(25.208 78.002)">
    <path id="Trazado_344" data-name="Trazado 344" d="M197.693,518.44a2.43,2.43,0,0,1,.144-.817,2.262,2.262,0,0,1,.423-.73,2.126,2.126,0,0,1,.682-.522,2.045,2.045,0,0,1,.916-.2,1.911,1.911,0,0,1,1.044.276,1.708,1.708,0,0,1,.647.717l-.455.295a1.317,1.317,0,0,0-.247-.365,1.268,1.268,0,0,0-.314-.237,1.352,1.352,0,0,0-.349-.128,1.677,1.677,0,0,0-.352-.038,1.391,1.391,0,0,0-.669.157,1.555,1.555,0,0,0-.49.41,1.787,1.787,0,0,0-.3.57,2.115,2.115,0,0,0-.1.637,1.964,1.964,0,0,0,.118.682,1.881,1.881,0,0,0,.33.573,1.6,1.6,0,0,0,.5.4,1.358,1.358,0,0,0,.628.147,1.6,1.6,0,0,0,.368-.045,1.353,1.353,0,0,0,.362-.144,1.548,1.548,0,0,0,.323-.25,1.216,1.216,0,0,0,.247-.362l.48.263a1.417,1.417,0,0,1-.3.452,1.924,1.924,0,0,1-.442.33,2.247,2.247,0,0,1-.522.2,2.163,2.163,0,0,1-.538.071,1.814,1.814,0,0,1-.858-.205,2.281,2.281,0,0,1-.676-.535,2.49,2.49,0,0,1-.6-1.6Z" transform="translate(-197.693 -516.07)" fill="#e45f13"/>
    <path id="Trazado_345" data-name="Trazado 345" d="M215.714,523.891a1.708,1.708,0,0,1-.692-.138,1.636,1.636,0,0,1-.538-.375,1.7,1.7,0,0,1-.349-.554,1.81,1.81,0,0,1-.125-.669,1.785,1.785,0,0,1,.125-.666,1.667,1.667,0,0,1,.893-.926,1.7,1.7,0,0,1,.692-.138,1.625,1.625,0,0,1,1.553,1.06,1.789,1.789,0,0,1,.119.644c0,.047,0,.09,0,.128a.755.755,0,0,1-.01.09h-2.773a1.3,1.3,0,0,0,.115.455,1.165,1.165,0,0,0,.25.352,1.147,1.147,0,0,0,.349.231,1.04,1.04,0,0,0,.413.083,1.1,1.1,0,0,0,.3-.042,1.287,1.287,0,0,0,.275-.112.946.946,0,0,0,.228-.173.7.7,0,0,0,.15-.231l.487.135a1.228,1.228,0,0,1-.227.34,1.517,1.517,0,0,1-.333.266,1.709,1.709,0,0,1-.419.176A1.784,1.784,0,0,1,215.714,523.891Zm1.146-1.96a1.2,1.2,0,0,0-.118-.439,1.184,1.184,0,0,0-.25-.343,1.144,1.144,0,0,0-1.194-.221,1.093,1.093,0,0,0-.349.224,1.144,1.144,0,0,0-.243.343,1.254,1.254,0,0,0-.112.435Z" transform="translate(-209.513 -519.151)" fill="#e45f13"/>
    <path id="Trazado_346" data-name="Trazado 346" d="M231.994,523.827h-.563v-1.87a1.441,1.441,0,0,0-.164-.782.557.557,0,0,0-.5-.243.953.953,0,0,0-.346.067,1.371,1.371,0,0,0-.326.183,1.264,1.264,0,0,0-.269.276,1.164,1.164,0,0,0-.173.352v2.018h-.564v-3.343h.512v.717a1.472,1.472,0,0,1,.574-.564,1.633,1.633,0,0,1,.817-.211.986.986,0,0,1,.48.106.815.815,0,0,1,.308.295,1.318,1.318,0,0,1,.163.445,3.035,3.035,0,0,1,.048.557Z" transform="translate(-220.439 -519.151)" fill="#e45f13"/>
    <path id="Trazado_347" data-name="Trazado 347" d="M244.179,520.882c-.034.017-.079.038-.134.061s-.118.047-.189.071a1.654,1.654,0,0,1-.23.058,1.445,1.445,0,0,1-.259.022.856.856,0,0,1-.532-.17.62.62,0,0,1-.224-.528v-2.248h-.455V517.7h.455V516.59h.564V517.7h.749v.442h-.749v2.075a.349.349,0,0,0,.122.269.411.411,0,0,0,.257.083.823.823,0,0,0,.3-.054,1.318,1.318,0,0,0,.189-.087Z" transform="translate(-229.901 -516.372)" fill="#e45f13"/>
    <path id="Trazado_348" data-name="Trazado 348" d="M253.707,521.061a1.451,1.451,0,0,0-.746.218,1.112,1.112,0,0,0-.458.57v2.063h-.564v-3.344h.525v.775a1.573,1.573,0,0,1,.455-.56,1.132,1.132,0,0,1,.6-.24h.109a.41.41,0,0,1,.077.006Z" transform="translate(-236.989 -519.235)" fill="#e45f13"/>
    <path id="Trazado_349" data-name="Trazado 349" d="M261.078,523.891a1.2,1.2,0,0,1-.442-.08,1.1,1.1,0,0,1-.356-.221,1.049,1.049,0,0,1-.237-.33.977.977,0,0,1-.087-.413.865.865,0,0,1,.1-.419.952.952,0,0,1,.291-.324,1.512,1.512,0,0,1,.448-.211,1.989,1.989,0,0,1,.567-.077,2.82,2.82,0,0,1,.493.045,2.275,2.275,0,0,1,.442.122v-.269a.806.806,0,0,0-.884-.877,1.872,1.872,0,0,0-1.063.391l-.186-.365a2.311,2.311,0,0,1,1.3-.435,1.427,1.427,0,0,1,1.028.352,1.308,1.308,0,0,1,.368.993v1.364q0,.2.18.2v.487l-.147.019a1.121,1.121,0,0,1-.122.006.359.359,0,0,1-.266-.1.407.407,0,0,1-.118-.24l-.013-.237a1.447,1.447,0,0,1-.567.458A1.743,1.743,0,0,1,261.078,523.891Zm.147-.423a1.4,1.4,0,0,0,.561-.112.926.926,0,0,0,.394-.3.357.357,0,0,0,.122-.25v-.493a2.321,2.321,0,0,0-.852-.16,1.207,1.207,0,0,0-.689.179.542.542,0,0,0-.266.467.638.638,0,0,0,.055.263.623.623,0,0,0,.154.211.735.735,0,0,0,.234.141A.8.8,0,0,0,261.225,523.468Z" transform="translate(-242.797 -519.151)" fill="#e45f13"/>
    <path id="Trazado_350" data-name="Trazado 350" d="M274.367,515.8h.564v3.811a.408.408,0,0,0,.1.291.364.364,0,0,0,.279.106.735.735,0,0,0,.166-.023,1.306,1.306,0,0,0,.18-.054l.09.455a1.832,1.832,0,0,1-.333.1,1.759,1.759,0,0,1-.34.038.7.7,0,0,1-.516-.186.694.694,0,0,1-.189-.519Z" transform="translate(-253.236 -515.8)" fill="#e45f13"/>
    <path id="Trazado_351" data-name="Trazado 351" d="M286.946,516.265h.487l1.858,4.548h-.615l-.538-1.332h-1.909l-.532,1.332h-.615Zm1.063,2.767-.82-2.1-.846,2.1Z" transform="translate(-260.998 -516.137)" fill="#e45f13"/>
    <path id="Trazado_352" data-name="Trazado 352" d="M307.807,523.827h-.564v-1.87a1.4,1.4,0,0,0-.169-.775.569.569,0,0,0-.5-.25.9.9,0,0,0-.618.246,1.352,1.352,0,0,0-.387.637v2.011H305v-1.87a1.423,1.423,0,0,0-.167-.782.567.567,0,0,0-.5-.243.913.913,0,0,0-.615.24,1.3,1.3,0,0,0-.39.637v2.018h-.564v-3.343h.513v.717a1.514,1.514,0,0,1,.532-.573,1.373,1.373,0,0,1,.737-.2.948.948,0,0,1,.669.227.98.98,0,0,1,.3.586,1.4,1.4,0,0,1,1.275-.813,1.008,1.008,0,0,1,.484.106.812.812,0,0,1,.311.295,1.38,1.38,0,0,1,.166.445,2.889,2.889,0,0,1,.051.557Z" transform="translate(-273.808 -519.151)" fill="#e45f13"/>
    <path id="Trazado_353" data-name="Trazado 353" d="M325.667,523.891a1.708,1.708,0,0,1-.692-.138,1.641,1.641,0,0,1-.538-.375,1.719,1.719,0,0,1-.349-.554,1.815,1.815,0,0,1-.125-.669,1.79,1.79,0,0,1,.125-.666,1.694,1.694,0,0,1,.353-.551,1.667,1.667,0,0,1,.541-.375,1.7,1.7,0,0,1,.692-.138,1.626,1.626,0,0,1,1.553,1.06,1.8,1.8,0,0,1,.118.644c0,.047,0,.09,0,.128a.613.613,0,0,1-.01.09h-2.773a1.308,1.308,0,0,0,.115.455,1.171,1.171,0,0,0,.25.352,1.138,1.138,0,0,0,.349.231,1.04,1.04,0,0,0,.413.083,1.106,1.106,0,0,0,.3-.042,1.292,1.292,0,0,0,.275-.112.954.954,0,0,0,.227-.173.693.693,0,0,0,.151-.231l.486.135a1.217,1.217,0,0,1-.227.34,1.509,1.509,0,0,1-.333.266,1.714,1.714,0,0,1-.419.176A1.786,1.786,0,0,1,325.667,523.891Zm1.146-1.96a1.193,1.193,0,0,0-.118-.439,1.164,1.164,0,0,0-.25-.343,1.144,1.144,0,0,0-1.194-.221,1.09,1.09,0,0,0-.349.224,1.134,1.134,0,0,0-.244.343,1.26,1.26,0,0,0-.112.435Z" transform="translate(-289.164 -519.151)" fill="#e45f13"/>
    <path id="Trazado_354" data-name="Trazado 354" d="M340.814,521.061a1.45,1.45,0,0,0-.746.218,1.109,1.109,0,0,0-.457.57v2.063h-.564v-3.344h.525v.775a1.571,1.571,0,0,1,.455-.56,1.132,1.132,0,0,1,.6-.24h.109a.407.407,0,0,1,.076.006Z" transform="translate(-300.09 -519.235)" fill="#e45f13"/>
    <path id="Trazado_355" data-name="Trazado 355" d="M348.017,516.5v-.7h.564v.7Zm0,3.971v-3.344h.564v3.344Z" transform="translate(-306.588 -515.8)" fill="#e45f13"/>
    <path id="Trazado_356" data-name="Trazado 356" d="M353.084,522.149a1.83,1.83,0,0,1,.122-.666,1.637,1.637,0,0,1,.346-.548,1.678,1.678,0,0,1,.535-.371,1.7,1.7,0,0,1,.7-.138,1.618,1.618,0,0,1,.861.221,1.435,1.435,0,0,1,.548.593l-.551.173a.915.915,0,0,0-.358-.368,1.02,1.02,0,0,0-.513-.131,1.047,1.047,0,0,0-.787.352,1.28,1.28,0,0,0-.234.391,1.419,1.419,0,0,0,0,.986,1.315,1.315,0,0,0,.24.4,1.1,1.1,0,0,0,.353.266.994.994,0,0,0,.432.1,1.05,1.05,0,0,0,.292-.042,1.122,1.122,0,0,0,.263-.112.993.993,0,0,0,.208-.163.553.553,0,0,0,.128-.2l.551.167a1.2,1.2,0,0,1-.214.339,1.335,1.335,0,0,1-.324.263,1.772,1.772,0,0,1-.89.237,1.667,1.667,0,0,1-1.23-.519,1.694,1.694,0,0,1-.349-.554A1.8,1.8,0,0,1,353.084,522.149Z" transform="translate(-310.259 -519.151)" fill="#e45f13"/>
    <path id="Trazado_357" data-name="Trazado 357" d="M367.476,523.891a1.2,1.2,0,0,1-.441-.08,1.1,1.1,0,0,1-.356-.221,1.028,1.028,0,0,1-.237-.33.974.974,0,0,1-.087-.413.861.861,0,0,1,.1-.419.949.949,0,0,1,.292-.324,1.5,1.5,0,0,1,.448-.211,1.984,1.984,0,0,1,.567-.077,2.829,2.829,0,0,1,.493.045,2.288,2.288,0,0,1,.442.122v-.269a.806.806,0,0,0-.884-.877,1.868,1.868,0,0,0-1.063.391l-.186-.365a2.311,2.311,0,0,1,1.3-.435,1.428,1.428,0,0,1,1.029.352,1.307,1.307,0,0,1,.368.993v1.364q0,.2.179.2v.487l-.147.019a1.126,1.126,0,0,1-.122.006.36.36,0,0,1-.266-.1.414.414,0,0,1-.118-.24l-.012-.237a1.448,1.448,0,0,1-.567.458A1.744,1.744,0,0,1,367.476,523.891Zm.148-.423a1.4,1.4,0,0,0,.56-.112.924.924,0,0,0,.394-.3.358.358,0,0,0,.122-.25v-.493a2.321,2.321,0,0,0-.852-.16,1.208,1.208,0,0,0-.689.179.543.543,0,0,0-.265.467.642.642,0,0,0,.054.263.62.62,0,0,0,.154.211.737.737,0,0,0,.234.141A.8.8,0,0,0,367.623,523.468Z" transform="translate(-319.873 -519.151)" fill="#e45f13"/>
  </g>
  <rect id="Rectángulo_74" data-name="Rectángulo 74" width="6.813" height="10.547" transform="translate(55.524 38.967)" fill="#007098"/>
</svg>
